<svg width="323" height="169" viewBox="0 0 323 169" fill="none" xmlns="http://www.w3.org/2000/svg">
<g clip-path="url(#clip0_201_320)">
<path d="M316.941 78.6096C318.31 79.6404 318.952 81.0603 320.003 82.2631C319.008 82.6792 318.031 83.1237 317.063 83.5744C316.5 83.031 315.884 82.5198 315.219 82.0427C314.815 81.8127 314.379 81.6094 313.934 81.4234C315.203 80.5417 314.602 79.5087 314.276 78.6413C315.16 78.641 316.049 78.6272 316.941 78.6096Z" fill="#8755D0"/>
<path d="M320.003 82.2631C320.432 82.8063 320.542 83.4802 320.02 84.1498C319.311 84.2559 318.603 84.3648 317.895 84.4737C317.623 84.1696 317.347 83.8695 317.063 83.5743C318.031 83.1236 319.008 82.6791 320.003 82.2631Z" fill="#624492"/>
<path d="M320.02 84.1498C319.881 84.3784 319.739 84.611 319.592 84.8419C319.877 85.5556 320.123 86.3096 319.8 87.1263C319.315 86.7566 318.839 86.3875 318.354 86.0206C318.104 85.8332 317.85 85.6497 317.593 85.4674C317.691 85.136 317.792 84.8034 317.895 84.4737C318.603 84.3648 319.311 84.2559 320.02 84.1498Z" fill="#C3BCA8"/>
<path d="M318.354 86.0205C318.839 86.3874 319.315 86.7565 319.8 87.1262C318.984 87.9735 317.771 87.5262 316.821 87.4249C317.331 86.959 317.844 86.4892 318.354 86.0205Z" fill="#827974"/>
<path d="M313.375 77.1172C314.589 77.5879 315.846 78.0202 316.941 78.6096C316.049 78.6272 315.16 78.641 314.276 78.6413C314.602 79.5087 315.203 80.5417 313.934 81.4234C313.754 81.5163 313.391 81.7034 313.212 81.7963C312.331 81.392 311.421 81.0133 310.583 80.5705C311.339 80.1585 312.204 79.7741 312.696 79.1726C312.958 78.7281 312.767 78.2946 312.747 77.8721C312.905 77.6831 313.217 77.3062 313.375 77.1172Z" fill="#BE8FF5"/>
<path d="M317.063 83.5743C317.347 83.8695 317.623 84.1696 317.895 84.4737C317.792 84.8034 317.691 85.136 317.593 85.4674C316.733 84.8599 315.813 84.2925 314.89 83.7318C314.983 83.1682 315.09 82.6068 315.219 82.0426C315.884 82.5198 316.5 83.0309 317.063 83.5743Z" fill="#D9B0FF"/>
<path d="M317.593 85.4673C317.85 85.6497 318.104 85.8332 318.354 86.0205C317.844 86.4892 317.331 86.959 316.821 87.4249C316.296 87.3231 315.784 87.2028 315.273 87.0854C315.235 87.6731 315.188 88.2603 315.147 88.8519C314.792 88.968 314.079 89.207 313.719 89.3242C312.101 88.2557 311.952 86.5239 311.652 84.9404C312.743 84.5525 313.823 84.1583 314.89 83.7318C315.813 84.2925 316.733 84.8599 317.593 85.4673Z" fill="#9F6AED"/>
<path d="M313.934 81.4234C314.379 81.6094 314.815 81.8127 315.219 82.0427C315.09 82.6068 314.983 83.1682 314.89 83.7319C313.823 84.1584 312.743 84.5525 311.652 84.9405C311.601 84.7507 311.499 84.3681 311.447 84.1755C312.532 83.8667 314.025 83.6223 314.366 82.6571C314.059 82.3206 313.644 82.0487 313.212 81.7963C313.391 81.7034 313.754 81.5164 313.934 81.4234Z" fill="#9785AF"/>
<path d="M312.406 76.7484C312.731 76.8678 313.052 76.9911 313.375 77.1172C313.217 77.3062 312.905 77.683 312.747 77.872C311.284 78.279 309.713 78.4843 308.342 79.118C307.978 79.7482 307.89 80.3973 307.812 81.0318C307.136 81.56 306.46 82.0881 305.786 82.6191C305.402 81.7014 304.921 80.8187 304.313 79.9911C304.414 79.9042 304.613 79.7343 304.715 79.6501C305.036 80.369 305.373 81.0806 305.744 81.7834C306.754 80.7137 306.354 79.6208 306.047 78.6228C306.017 78.5262 305.96 78.3319 305.934 78.2341C306.191 78.249 306.705 78.2788 306.962 78.2937C306.898 77.506 306.822 76.7244 306.724 75.9456L306.898 76.0815C307.879 77.3568 310.319 77.8103 312.406 76.7484Z" fill="#BBC78B"/>
<path d="M312.747 77.8721C312.767 78.2946 312.958 78.7281 312.695 79.1726C312.204 79.7741 311.339 80.1585 310.583 80.5705C310.266 80.3981 309.949 80.2257 309.636 80.0522C310.013 81.1273 310.318 82.2307 310.879 83.2475C310.797 83.7213 310.689 84.1961 310.55 84.6732C309.222 83.6765 308.273 82.4375 307.812 81.0319C307.89 80.3973 307.978 79.7483 308.342 79.118C309.713 78.4843 311.284 78.279 312.747 77.8721Z" fill="#D4BDF8"/>
<path d="M313.212 81.7962C313.644 82.0486 314.059 82.3205 314.366 82.657C314.025 83.6222 312.532 83.8667 311.447 84.1754C311.261 83.8631 311.072 83.5547 310.879 83.2474C310.318 82.2306 310.013 81.1272 309.636 80.0521C309.949 80.2256 310.266 80.398 310.583 80.5704C311.421 81.0132 312.331 81.3919 313.212 81.7962Z" fill="#606A44"/>
<path d="M312.406 76.7484C310.319 77.8103 307.879 77.3568 306.898 76.0815C307.844 75.9478 308.795 75.8365 309.721 75.8429C310.644 76.1072 311.528 76.4239 312.406 76.7484Z" fill="#656D39"/>
<path d="M308.133 68.6583C309.05 69.1816 309.918 69.817 310.048 70.7488C309.396 71.085 308.749 71.4228 308.098 71.759C307.709 71.2856 307.17 70.8494 307.09 70.2515C306.989 69.6769 307.703 69.1566 308.133 68.6583Z" fill="#9C6EE1"/>
<path d="M310.048 70.7488C310.241 71.4692 310.417 72.1939 310.66 72.901C309.164 72.7212 307.677 72.5242 306.196 72.3194C305.724 71.617 305.208 70.9352 304.638 70.2802C304.831 69.9232 305.024 69.5663 305.221 69.211C304.919 69.1095 304.621 69.0097 304.32 68.911C305.302 68.6658 306.283 68.4177 307.26 68.168C307.556 68.3281 307.848 68.4893 308.133 68.6583C307.703 69.1567 306.989 69.6769 307.09 70.2515C307.17 70.8494 307.709 71.2856 308.098 71.759C308.749 71.4228 309.396 71.085 310.048 70.7488Z" fill="#DABBF7"/>
<path d="M310.66 72.901C310.814 73.3952 311.052 73.8823 310.997 74.4237C310.65 74.9205 310.168 75.3759 309.721 75.8429C308.795 75.8365 307.844 75.9479 306.898 76.0815L306.724 75.9456C305.587 75.182 304.316 74.5169 303.314 73.6603C303.379 73.556 303.514 73.3463 303.584 73.2437C305.55 73.5369 307.499 73.8647 309.41 74.2533C309.826 73.8007 310.243 73.3508 310.66 72.901Z" fill="#9562E2"/>
<path d="M310.66 72.901C310.243 73.3508 309.826 73.8006 309.41 74.2533C307.499 73.8647 305.55 73.5369 303.584 73.2437C303.839 72.8673 304.103 72.4943 304.348 72.1173C304.967 72.1729 305.584 72.238 306.196 72.3193C307.677 72.5242 309.164 72.7212 310.66 72.901Z" fill="#512F82"/>
<path d="M307.812 81.0318C308.273 82.4375 309.222 83.6764 310.55 84.6731C310.245 85.3565 309.782 86.0161 309.294 86.6646C309.261 86.3084 309.224 85.9533 309.186 85.5983C307.789 85.2395 306.892 84.4444 306.712 83.3433C306.572 83.4168 306.292 83.5638 306.148 83.6383C306.037 83.2938 305.916 82.9553 305.786 82.6191C306.46 82.0881 307.136 81.56 307.812 81.0318Z" fill="#B284F5"/>
<path d="M304.32 68.911C304.621 69.0097 304.919 69.1095 305.221 69.211C305.024 69.5663 304.831 69.9232 304.638 70.2802C305.208 70.9352 305.724 71.617 306.196 72.3194C305.584 72.2381 304.967 72.173 304.348 72.1173L304.432 71.9662C304.321 71.5502 304.157 71.1542 303.985 70.7604C303.976 70.1162 303.994 69.4682 304.037 68.8191L304.32 68.911Z" fill="#AF93D7"/>
<path d="M303.314 73.6603C304.316 74.5169 305.587 75.182 306.724 75.9456C306.179 75.9331 305.639 75.9222 305.098 75.9086C305.271 76.3559 305.441 76.8072 305.606 77.2596C304.43 76.698 303.248 76.1319 302.353 75.3451C302.538 74.9904 302.728 74.6374 302.927 74.2877C303.023 74.1304 303.218 73.8148 303.314 73.6603Z" fill="#D1B2F9"/>
<path d="M306.724 75.9456C306.822 76.7245 306.898 77.506 306.962 78.2938C306.705 78.2789 306.191 78.2491 305.934 78.2342C305.837 77.9041 305.728 77.5802 305.606 77.2596C305.441 76.8072 305.271 76.356 305.098 75.9086C305.639 75.9222 306.179 75.9331 306.724 75.9456Z" fill="#EEE2F2"/>
<path d="M306.712 83.3433C306.892 84.4443 307.789 85.2395 309.186 85.5982C309.224 85.9533 309.261 86.3084 309.294 86.6646C308.569 86.5446 307.55 86.686 307.135 86.1958C306.57 85.4285 306.453 84.4962 306.148 83.6383C306.292 83.5637 306.572 83.4168 306.712 83.3433Z" fill="#7554BA"/>
<path d="M302.466 68.3752C303.006 68.4999 303.527 68.6536 304.037 68.8191C303.994 69.4682 303.976 70.1162 303.985 70.7604C303.732 70.846 303.228 71.0199 302.976 71.1055C302.056 71.0707 301.16 70.9727 300.255 70.8949C300.187 70.7754 300.056 70.5323 299.992 70.4117L299.912 70.2447C300.74 70.0198 301.57 69.7855 302.395 69.5523C302.092 69.2655 301.789 68.9815 301.488 68.7002C301.733 68.6197 302.221 68.4557 302.466 68.3752Z" fill="#52337F"/>
<path d="M303.985 70.7603C304.157 71.1541 304.321 71.5501 304.432 71.9662C303.928 71.6941 303.447 71.4042 302.976 71.1055C303.228 71.0199 303.732 70.8459 303.985 70.7603Z" fill="#DCC7E4"/>
<path d="M304.432 71.9661L304.348 72.1173C304.103 72.4943 303.839 72.8673 303.584 73.2437C303.514 73.3463 303.379 73.556 303.314 73.6603C303.218 73.8147 303.023 74.1304 302.927 74.2876C302.258 74.4429 301.587 74.6049 300.912 74.7379C301.085 74.2425 301.252 73.7521 301.414 73.2628C301.838 73.3226 302.259 73.3863 302.685 73.4489C302.848 72.7977 303.002 72.1488 303.148 71.4992C302.382 71.5578 301.595 71.6041 300.853 71.8988C300.652 71.5636 300.452 71.2312 300.255 70.8948C301.16 70.9727 302.056 71.0706 302.976 71.1055C303.447 71.4042 303.928 71.6941 304.432 71.9661Z" fill="#9A9A77"/>
<path d="M305.606 77.2596C305.728 77.5802 305.837 77.9041 305.934 78.2342C305.96 78.3319 306.017 78.5262 306.047 78.6228C305.6 78.961 305.149 79.3002 304.715 79.6501C304.613 79.7343 304.414 79.9042 304.313 79.9911C303.771 79.7894 303.212 79.6099 302.66 79.4227C302.919 79.3443 303.436 79.1849 303.694 79.1066C302.926 77.6815 301.442 76.6338 299.837 75.7171L299.706 75.5098C300.587 75.4475 301.473 75.3924 302.353 75.3452C303.248 76.1319 304.43 76.698 305.606 77.2596Z" fill="#B687F8"/>
<path d="M306.047 78.6228C306.354 79.6207 306.754 80.7137 305.744 81.7834C305.373 81.0806 305.036 80.369 304.715 79.6501C305.149 79.3002 305.6 78.9609 306.047 78.6228Z" fill="#78804C"/>
<path d="M301.935 67.1709C301.898 67.5488 301.866 67.9255 301.835 68.305C301.026 68.5516 300.23 68.8307 299.433 69.1041C298.713 68.7854 297.998 68.4561 297.289 68.1285L297.62 67.923C298.787 67.9008 299.968 67.8026 301.151 67.6771C301.097 67.5241 300.993 67.2197 300.94 67.0695C301.272 67.1001 301.601 67.1347 301.935 67.1709Z" fill="#B9B699"/>
<path d="M301.835 68.305C301.991 68.3231 302.31 68.357 302.466 68.3751C302.221 68.4557 301.733 68.6196 301.488 68.7002C301.789 68.9814 302.092 69.2654 302.395 69.5522C301.57 69.7854 300.74 70.0198 299.912 70.2446C299.744 69.8676 299.593 69.4833 299.433 69.104C300.23 68.8306 301.026 68.5516 301.835 68.305Z" fill="#714FB6"/>
<path d="M300.853 71.8989C301.595 71.6041 302.382 71.5579 303.148 71.4993C303.002 72.1488 302.848 72.7978 302.685 73.4489C302.259 73.3863 301.838 73.3226 301.413 73.2628C301.252 73.7521 301.085 74.2425 300.912 74.7379C300.371 74.7901 299.827 74.8312 299.288 74.8616C299.046 74.8697 298.563 74.8885 298.322 74.8993C298.286 74.7172 298.211 74.3543 298.176 74.1723C298.093 73.8652 298.003 73.5602 297.908 73.2564C298.11 73.1663 298.51 72.9844 298.712 72.8943C299.433 72.5666 300.142 72.2299 300.853 71.8989Z" fill="#5B663C"/>
<path d="M295.286 63.6637C297.461 63.6585 299.119 64.5459 298.633 66.0137C298.202 65.9048 297.766 65.7973 297.335 65.6912C297.383 65.2475 297.415 64.808 297.432 64.3724C296.941 64.7014 296.456 65.0319 295.971 65.3623C294.035 65.6178 292.094 65.8746 290.143 66.2177C289.943 66.0889 289.737 65.9614 289.532 65.8368C291.468 65.1386 293.287 64.2471 295.286 63.6637Z" fill="#764FB5"/>
<path d="M300.94 67.0695C300.993 67.2197 301.097 67.5241 301.151 67.6771C299.968 67.8026 298.787 67.9008 297.62 67.923C297.479 67.8921 297.2 67.8292 297.063 67.7971C296.937 67.711 296.682 67.537 296.557 67.4509C297.987 66.6246 299.531 66.9172 300.94 67.0695Z" fill="#57583A"/>
<path d="M298.384 64.7454C298.862 65.0832 299.347 65.4256 299.827 65.7693C298.281 66.3285 296.659 66.6056 294.999 66.5845C294.381 66.5171 293.761 66.4437 293.14 66.3645C292.435 65.5082 291.736 64.6374 291.047 63.7641C292.98 63.6241 294.928 63.6564 296.87 63.69C297.251 63.9532 298.008 64.4809 298.384 64.7454Z" fill="#543684"/>
<path d="M302.927 74.2877C302.728 74.6373 302.538 74.9904 302.353 75.3451C301.473 75.3924 300.587 75.4474 299.706 75.5097C299.601 75.3494 299.389 75.0231 299.288 74.8616C299.827 74.8312 300.371 74.7901 300.912 74.7379C301.587 74.6049 302.258 74.4429 302.927 74.2877Z" fill="#B2A0B1"/>
<path d="M295.98 58.472C297.44 58.6824 298.046 59.6663 298.607 60.5334C298.162 60.847 297.719 61.1662 297.263 61.468C296.211 61.2532 295.077 61.1979 293.918 61.2481C294.872 61.0821 295.828 60.901 296.781 60.7143C296.381 60.5463 295.976 60.3793 295.572 60.2124C296.212 59.9482 296.847 59.6851 297.483 59.422C295.593 58.947 293.422 59.1486 291.301 59.4357C291.143 59.412 290.825 59.3685 290.664 59.3487C292.38 58.8054 294.302 58.0598 295.98 58.472Z" fill="#D7C0FA"/>
<path d="M299.837 75.717C301.442 76.6337 302.926 77.6815 303.694 79.1066C303.435 79.1849 302.919 79.3443 302.66 79.4226C302.512 79.4682 302.217 79.5593 302.065 79.6059C301.701 78.1653 300.431 77.0721 299.837 75.717Z" fill="#945DE8"/>
<path d="M291.301 59.4357C293.422 59.1486 295.593 58.947 297.483 59.4221C296.847 59.6852 296.212 59.9483 295.572 60.2124C295.976 60.3794 296.381 60.5463 296.781 60.7144C295.828 60.9011 294.872 61.0822 293.918 61.2482C295.077 61.198 296.211 61.2533 297.263 61.4681C295.578 62.3386 293.768 61.9468 292.284 61.5662C292.566 61.1077 293.17 60.6286 293.017 60.155C292.89 59.5844 291.938 59.5762 291.301 59.4357Z" fill="#B488F0"/>
<path d="M300.255 70.8949C300.452 71.2312 300.652 71.5637 300.853 71.8989C300.142 72.2299 299.433 72.5666 298.713 72.8943C298.551 72.0277 298.978 71.1174 299.992 70.4117C300.056 70.5323 300.187 70.7753 300.255 70.8949Z" fill="#7D8850"/>
<path d="M299.433 69.1041C299.593 69.4833 299.744 69.8676 299.912 70.2446L299.992 70.4116C298.978 71.1173 298.551 72.0277 298.712 72.8942C298.51 72.9844 298.11 73.1663 297.908 73.2564C297.187 73.5813 296.459 73.8962 295.73 74.211C294.896 73.5159 294.077 72.8136 293.235 72.1235C293.516 71.8119 293.796 71.5003 294.078 71.1915C294.65 71.7053 295.216 72.2242 295.78 72.7403C296.015 72.073 296.222 71.404 296.354 70.7372C296.506 69.8644 296.671 68.9704 297.289 68.1285C297.998 68.4561 298.713 68.7854 299.433 69.1041Z" fill="#A071E8"/>
<path d="M299.837 75.717C300.431 77.0721 301.701 78.1653 302.065 79.606C301.915 80.0383 301.738 80.4718 301.529 80.9018C300.828 80.5899 300.131 80.2768 299.419 79.9709C299.328 78.2745 298.501 76.6617 299.288 74.8616C299.389 75.0231 299.601 75.3494 299.706 75.5097L299.837 75.717Z" fill="#774CBA"/>
<path d="M301.529 80.9018C300.903 81.3 300.24 81.6602 299.578 82.0231C299.415 81.8962 299.084 81.6406 298.922 81.5136C299.094 80.9976 299.272 80.486 299.419 79.971C300.131 80.2768 300.828 80.5899 301.529 80.9018Z" fill="#A680DB"/>
<path d="M297.62 67.923L297.289 68.1285C296.671 68.9704 296.506 69.8644 296.354 70.7372C295.234 70.3219 294.022 70.0215 292.753 69.8108C293.09 69.3792 293.427 68.9449 293.76 68.5145C292.831 68.7274 291.567 68.8327 291.167 69.6432C291.198 70.6524 291.778 71.5263 292.156 72.4395C291.446 72.3933 290.606 72.421 290.154 72.0274C290.037 71.0922 290.205 70.1134 290.071 69.1827C291.263 68.5911 292.47 68.0253 293.698 67.4868C294.801 67.6252 295.95 67.6732 297.062 67.7971C297.2 67.8292 297.479 67.8921 297.62 67.923Z" fill="#8A5EC5"/>
<path d="M298.322 74.8992C298.563 74.8884 299.046 74.8696 299.289 74.8616C298.501 76.6617 299.328 78.2745 299.419 79.9709C299.272 80.4859 299.094 80.9975 298.922 81.5136C296.86 80.0012 297.82 77.4695 298.255 75.3479C298.274 75.2352 298.303 75.012 298.322 74.8992Z" fill="#4B3476"/>
<path d="M295.172 66.4753C295.682 66.4554 296.191 66.4328 296.699 66.4073C296.389 66.4783 295.765 66.6158 295.45 66.6851C295.816 66.9402 296.186 67.1941 296.557 67.4509C296.682 67.5371 296.937 67.711 297.063 67.7972C295.95 67.6733 294.801 67.6252 293.698 67.4868L293.58 67.2968C294.111 67.023 294.641 66.7492 295.172 66.4753Z" fill="#B5A6C3"/>
<path d="M297.908 73.2564C298.003 73.5602 298.093 73.8651 298.176 74.1722C297.284 74.3573 296.388 74.5435 295.492 74.7298C294.38 74.142 293.261 73.547 291.959 73.1476C291.261 73.0444 290.554 72.9585 289.851 72.8687C289.109 71.0445 288.306 69.1588 286.375 67.9017C286.934 67.6173 287.484 67.3323 288.038 67.049C288.09 66.3977 288.137 65.7447 288.129 65.1005C288.192 65.3172 288.317 65.7533 288.38 65.97C289.226 66.9224 289.98 67.9473 290.071 69.1827C290.205 70.1134 290.037 71.0922 290.154 72.0274C290.606 72.421 291.446 72.3932 292.156 72.4395C292.428 72.3607 292.967 72.2013 293.235 72.1235C294.077 72.8136 294.896 73.5159 295.73 74.211C296.459 73.8962 297.187 73.5813 297.908 73.2564Z" fill="#7A4EC0"/>
<path d="M298.176 74.1723C298.211 74.3543 298.286 74.7172 298.322 74.8993C298.303 75.012 298.274 75.2352 298.255 75.348C298.137 75.1401 297.899 74.7312 297.778 74.5273C297.296 75.6139 297.296 76.9876 295.701 77.7321L295.93 77.4762C296.755 76.4442 295.945 75.56 295.492 74.7298C296.388 74.5436 297.284 74.3574 298.176 74.1723Z" fill="#C8A2F7"/>
<path d="M289.907 63.0172C291.622 62.4259 293.205 62.8966 294.828 62.9375C293.864 63.2677 292.926 63.6447 292.011 64.0575L291.746 64.1794C290.529 64.3288 289.314 64.4358 288.11 64.5161C287.883 64.5291 287.433 64.5569 287.21 64.5689C287.157 64.7206 287.048 65.0252 286.995 65.177C287.103 64.7021 287.181 64.2295 287.263 63.7557C288.143 63.5108 289.021 63.2576 289.907 63.0172Z" fill="#B4B7A9"/>
<path d="M296.354 70.7372C296.222 71.4041 296.015 72.073 295.78 72.7403C295.216 72.2242 294.65 71.7054 294.078 71.1915C293.796 71.5003 293.516 71.812 293.235 72.1236C292.967 72.2013 292.428 72.3607 292.156 72.4396C291.778 71.5263 291.198 70.6525 291.167 69.6432C291.567 68.8327 292.831 68.7275 293.76 68.5145C293.427 68.9449 293.09 69.3793 292.753 69.8108C294.022 70.0215 295.234 70.3219 296.354 70.7372Z" fill="#DDB8FD"/>
<path d="M291.301 59.4357C291.938 59.5762 292.89 59.5844 293.016 60.155C293.17 60.6286 292.566 61.1077 292.284 61.5662C292.033 61.4899 291.523 61.3423 291.271 61.266C290.343 60.9671 289.438 60.6381 288.499 60.3509C288.69 60.2339 289.074 59.9934 289.265 59.8764C289.319 59.6823 289.433 59.2928 289.487 59.0986C289.872 59.193 290.264 59.2795 290.664 59.3488C290.825 59.3686 291.143 59.412 291.301 59.4357Z" fill="#9365EA"/>
<path d="M295.492 74.7298C295.945 75.56 296.755 76.4442 295.93 77.4762C295.146 77.2194 294.348 76.9754 293.515 76.7827C293.446 77.271 293.376 77.7565 293.307 78.2448C291.784 76.8666 292.666 74.7898 291.959 73.1476C293.261 73.547 294.38 74.142 295.492 74.7298Z" fill="#A978F2"/>
<path d="M293.58 67.2968L293.698 67.4867C292.47 68.0252 291.263 68.5911 290.071 69.1827C289.98 67.9473 289.226 66.9224 288.38 65.97C289.673 65.5934 290.986 65.107 291.746 64.1793L292.011 64.0574C292.539 65.1367 293.02 66.232 293.58 67.2968Z" fill="#AD77F6"/>
<path d="M288.499 60.3509C289.438 60.6381 290.343 60.9671 291.271 61.266C290.775 61.7012 290.274 62.1347 289.814 62.5901C288.864 61.7106 287.192 61.5691 285.559 61.6565C285.605 61.8804 285.704 62.3299 285.755 62.5527C285.194 62.0177 284.672 61.4632 284.155 60.9076C285.462 60.8984 286.963 61.1127 288.104 60.2325C288.205 60.2622 288.398 60.3211 288.499 60.3509Z" fill="#B98CF5"/>
<path d="M293.515 76.7826C294.348 76.9753 295.146 77.2193 295.93 77.4762L295.701 77.732C294.912 77.9525 294.105 78.0908 293.307 78.2448C293.376 77.7565 293.446 77.2709 293.515 76.7826Z" fill="#572E85"/>
<path d="M288.11 64.5161C289.314 64.4358 290.529 64.3288 291.746 64.1794C290.986 65.1071 289.673 65.5935 288.38 65.97C288.317 65.7534 288.192 65.3172 288.129 65.1006C288.126 64.9549 288.114 64.6618 288.11 64.5161Z" fill="#CEB3EB"/>
<path d="M284.645 53.6869C286.583 53.7629 288.392 54.5471 288.612 55.9814C287.611 56.8211 286.433 57.5768 285.766 58.5666C287.056 58.6428 288.343 58.7558 289.487 59.0986C289.433 59.2928 289.319 59.6822 289.265 59.8764C289.074 59.9933 288.69 60.2339 288.499 60.3508C288.398 60.3211 288.205 60.2622 288.104 60.2324C287.455 60.0322 286.803 59.8358 286.138 59.6579C284.838 59.2133 283.261 59.2467 281.707 59.4626C281.005 59.3304 280.334 59.1451 279.708 58.912C280.451 58.2371 281.435 57.7519 282.51 57.4548C283.286 57.7167 283.865 58.8814 284.942 58.2277C285.089 57.6496 285.021 57.0813 284.755 56.5869C284.163 55.7342 283.977 54.7247 284.645 53.6869ZM286.691 54.4312C286.167 54.6945 285.643 54.9605 285.121 55.2321C285.631 55.8257 286.437 56.2829 287.616 55.8622C287.323 55.3783 287.013 54.9017 286.691 54.4312Z" fill="#5F4E7D"/>
<path d="M289.814 62.5901C289.839 62.6973 289.882 62.91 289.907 63.0172C289.021 63.2576 288.143 63.5108 287.263 63.7557C286.73 63.3747 286.196 62.991 285.755 62.5527C285.704 62.3299 285.605 61.8804 285.559 61.6565C287.192 61.5691 288.864 61.7106 289.814 62.5901Z" fill="#9464D9"/>
<path d="M286.691 54.4313C287.013 54.9018 287.323 55.3784 287.616 55.8622C286.437 56.283 285.631 55.8257 285.121 55.2322C285.643 54.9606 286.167 54.6945 286.691 54.4313Z" fill="#D6BFFD"/>
<path d="M288.104 60.2325C286.963 61.1127 285.462 60.8984 284.155 60.9076C284.672 61.4632 285.194 62.0177 285.755 62.5527C286.196 62.991 286.73 63.3748 287.263 63.7557C287.181 64.2295 287.103 64.7021 286.995 65.177C286.897 65.4727 286.78 65.7672 286.646 66.0634C285.961 66.322 285.274 66.5749 284.592 66.8502C284.969 66.1508 285.318 65.4469 285.699 64.7491C284.423 63.8642 283.113 63.0032 281.741 62.1917C281.75 61.878 281.751 61.5666 281.749 61.259C283.082 60.767 284.411 60.2733 285.752 59.7914L286.138 59.658C286.803 59.8359 287.455 60.0323 288.104 60.2325Z" fill="#D6BBFD"/>
<path d="M288.11 64.5161C288.114 64.6618 288.126 64.9548 288.129 65.1005C288.137 65.7447 288.09 66.3977 288.038 67.0491C287.484 67.3324 286.934 67.6173 286.375 67.9017L285.912 68.1277C285.754 67.7719 285.602 67.4177 285.456 67.0586C285.856 66.7271 286.257 66.4011 286.646 66.0634C286.78 65.7672 286.897 65.4727 286.995 65.177C287.048 65.0252 287.157 64.7206 287.21 64.5689C287.433 64.5569 287.883 64.5291 288.11 64.5161Z" fill="#594963"/>
<path d="M280.568 53.3549C281.766 53.782 283.25 53.6687 284.645 53.687C283.977 54.7247 284.163 55.7342 284.755 56.5869C283.792 55.8755 282.467 55.4554 280.989 55.3577C280.107 55.2649 279.22 55.1854 278.32 55.1422C278.633 54.1904 279.109 53.2489 279.679 52.3242C278.545 51.7543 277.104 51.53 275.565 51.6879C275.036 51.7189 274.505 51.7594 273.973 51.8122C275.302 51.4022 276.599 50.923 277.908 50.4706C277.946 50.0325 277.988 49.5932 278.027 49.1579C278.205 49.128 278.564 49.0739 278.743 49.0468C279.555 49.1792 280.299 49.4198 281 49.696C280.387 49.6984 279.775 49.7159 279.158 49.7345C279.028 50.2931 278.885 50.8522 278.737 51.4124C280.016 51.33 281.293 51.2873 282.568 51.239C281.918 51.9486 281.246 52.6525 280.568 53.3549Z" fill="#9979D1"/>
<path d="M286.375 67.9017C288.306 69.1589 289.109 71.0445 289.851 72.8687C289.663 72.9639 289.287 73.1514 289.103 73.2427C288.537 72.706 287.937 72.1904 287.41 71.6314C287.06 70.3906 286.817 69.1181 286.375 67.9017Z" fill="#AD7DF1"/>
<path d="M284.755 56.5869C285.021 57.0813 285.089 57.6497 284.942 58.2277C283.865 58.8814 283.286 57.7167 282.51 57.4549C280.883 57.1667 279.125 57.0183 277.315 57.3059C277.669 57.9651 278.504 58.3459 279.276 58.7255C279.342 59.4021 279.403 60.0771 279.548 60.7354C278.987 61.2777 278.447 61.8295 277.98 62.4065C277.997 62.2882 278.028 62.0583 278.042 61.9439C277.265 61.6285 276.45 61.3532 275.634 61.0779C276.669 60.8305 277.69 60.53 278.707 60.2335C278.331 59.658 277.959 59.0813 277.517 58.5415C277.155 58.2194 276.791 57.889 276.3 57.6644C274.786 57.5974 273.203 58.1024 271.668 58.3429C272.807 57.969 273.918 57.5246 275.017 57.0686C275.202 56.6301 275.364 56.1916 275.518 55.7553L275.593 55.5377C275.671 55.894 275.79 56.2391 275.941 56.5726C277 56.7768 278.214 56.7686 279.384 56.5091C280.048 56.2561 280.465 55.7404 280.989 55.3577C282.467 55.4554 283.792 55.8755 284.755 56.5869Z" fill="#C29EF6"/>
<path d="M281.707 59.4626C283.261 59.2467 284.838 59.2134 286.138 59.658L285.752 59.7913C284.279 60.0604 282.966 59.7509 281.707 59.4626Z" fill="#A3A084"/>
<path d="M281.707 59.4626C282.965 59.7509 284.278 60.0604 285.752 59.7914C284.411 60.2733 283.082 60.767 281.749 61.259C281.751 61.5666 281.75 61.878 281.741 62.1917C281.435 62.8064 281.056 63.4137 280.681 64.0199C280.604 63.9478 280.451 63.8063 280.374 63.737C280.168 62.718 279.953 61.7012 279.548 60.7354C279.403 60.0771 279.342 59.4022 279.276 58.7255C279.382 58.772 279.598 58.8667 279.708 58.9121C280.334 59.1452 281.005 59.3304 281.707 59.4626Z" fill="#CDD7AE"/>
<path d="M287.41 71.6314C287.937 72.1904 288.537 72.706 289.103 73.2427C288.534 73.4579 287.799 73.996 287.245 73.6988C286.626 73.4634 286.226 73.0469 285.76 72.699C285.841 72.2883 285.918 71.8815 285.996 71.4747C286.467 71.5251 286.938 71.5783 287.41 71.6314Z" fill="#543485"/>
<path d="M286.646 66.0635C286.257 66.4012 285.856 66.7271 285.456 67.0586C285.602 67.4178 285.754 67.7719 285.912 68.1277C285.198 68.4654 284.411 68.6105 283.634 68.6752C283.643 68.4123 283.663 67.8893 283.672 67.6264C283.85 67.4771 284.205 67.1784 284.383 67.0291L284.592 66.8502C285.274 66.5749 285.961 66.322 286.646 66.0635Z" fill="#7D8850"/>
<path d="M281 49.696C281.813 50.0137 282.111 50.6941 282.568 51.239C281.293 51.2873 280.016 51.3301 278.737 51.4124C278.885 50.8522 279.028 50.2931 279.158 49.7346C279.775 49.7159 280.387 49.6984 281 49.696Z" fill="#4F3979"/>
<path d="M281.741 62.1917C283.113 63.0031 284.423 63.8642 285.699 64.7491C285.318 65.4469 284.969 66.1508 284.592 66.8502L284.383 67.0291C283.211 66.0711 282.032 65.1182 280.853 64.1653L280.681 64.0199C281.056 63.4137 281.435 62.8064 281.741 62.1917Z" fill="#9A61E7"/>
<path d="M286.375 67.9017C286.817 69.1181 287.06 70.3906 287.41 71.6314C286.938 71.5782 286.467 71.5251 285.996 71.4747C285.918 71.8815 285.841 72.2883 285.76 72.699C285.256 72.2924 284.663 71.9544 284.032 71.6537C283.708 70.6753 283.379 69.6979 282.896 68.7712C283.081 68.7486 283.45 68.7006 283.634 68.6752C284.411 68.6105 285.198 68.4654 285.912 68.1276L286.375 67.9017Z" fill="#915DD8"/>
<path d="M277.315 57.3059C279.125 57.0184 280.883 57.1667 282.51 57.4549C281.435 57.752 280.451 58.2372 279.708 58.9121C279.598 58.8667 279.382 58.772 279.276 58.7256C278.504 58.3459 277.669 57.9651 277.315 57.3059Z" fill="#8B65C8"/>
<path d="M280.853 64.1652C282.032 65.1182 283.211 66.0711 284.383 67.029C284.205 67.1784 283.85 67.477 283.672 67.6263C283.142 67.2058 282.631 66.7741 282.098 66.3574C281.344 65.6167 280.096 65.2989 278.749 65.2439C279.05 64.9446 279.343 64.6447 279.626 64.3415C279.934 64.2978 280.545 64.2089 280.853 64.1652Z" fill="#624793"/>
<path d="M278.229 55.1664C279.16 55.2014 280.077 55.2728 280.989 55.3577C280.444 55.7462 280.007 56.2671 279.317 56.5269C278.105 56.7979 276.848 56.8175 275.755 56.6226C275.601 56.2897 275.481 55.9448 275.404 55.5884L275.485 55.3422C276.403 55.2608 277.325 55.1783 278.229 55.1664Z" fill="#E2CFFC"/>
<path d="M272.735 49.9772C274.613 49.1299 276.868 48.6454 278.743 49.0468C278.564 49.0739 278.205 49.128 278.027 49.1579C276.682 49.4434 275.217 49.6265 274.015 50.2956C273.715 50.8339 273.536 51.3907 273.333 51.9418C273.492 51.908 273.813 51.8432 273.973 51.8122C274.505 51.7594 275.036 51.7189 275.565 51.6879C274.913 52.2724 274.236 52.8609 273.412 53.333C273.234 53.3478 272.875 53.3813 272.692 53.3972C272.46 52.8459 272.278 52.2813 272.109 51.7162C270.895 51.7423 269.659 51.9056 268.437 52.1673L268.416 51.8708C270.032 51.5573 271.311 50.6282 272.735 49.9772Z" fill="#C9B5E4"/>
<path d="M275.565 51.6878C277.104 51.5299 278.545 51.7543 279.679 52.3242C279.11 53.2488 278.634 54.1904 278.32 55.1422C277.446 55.1459 276.556 55.2199 275.669 55.2928C275.928 54.5681 276.214 53.8451 276.49 53.1188C275.465 53.187 274.442 53.2485 273.412 53.333C274.236 52.8608 274.913 52.2724 275.565 51.6878Z" fill="#BC92F1"/>
<path d="M283.672 67.6264C283.663 67.8893 283.643 68.4123 283.634 68.6752C283.45 68.7006 283.081 68.7486 282.896 68.7712C282.578 68.15 282.224 67.5416 281.879 66.931C281.345 67.044 280.811 67.1571 280.279 67.2758C280.892 66.9769 281.497 66.6652 282.098 66.3575C282.631 66.7741 283.142 67.2058 283.672 67.6264Z" fill="#AB91D6"/>
<path d="M282.896 68.7711C283.379 69.6979 283.708 70.6752 284.032 71.6537C283.119 71.8415 282.189 72.0997 281.274 72.1173C280.036 71.5902 279.375 70.6302 278.698 69.7462C279.152 69.8819 279.602 70.0188 280.056 70.1573C280.693 69.2507 280.929 68.2747 279.85 67.7289C279.76 67.6601 279.58 67.5169 279.49 67.4481C279.687 67.4043 280.081 67.3167 280.279 67.2757C280.811 67.1571 281.345 67.044 281.879 66.9309C282.224 67.5415 282.578 68.15 282.896 68.7711ZM282.027 70.0542C281.576 70.3756 281.125 70.697 280.674 71.0212C281.515 71.1609 282.356 71.63 283.338 71.268C283.431 70.6028 282.59 70.3822 282.027 70.0542Z" fill="#E4C4FB"/>
<path d="M274.015 50.2956C275.217 49.6265 276.682 49.4434 278.027 49.1579C277.988 49.5932 277.946 50.0325 277.908 50.4706C276.599 50.923 275.302 51.4022 273.973 51.8122C273.813 51.8432 273.492 51.908 273.333 51.9418C273.536 51.3906 273.715 50.8338 274.015 50.2956Z" fill="#BE94EE"/>
<path d="M278.749 65.2439C280.096 65.2989 281.344 65.6167 282.098 66.3575C281.497 66.6653 280.892 66.9769 280.279 67.2758C280.081 67.3168 279.687 67.4044 279.49 67.4482C279.374 67.4134 279.147 67.3427 279.03 67.3052C278.952 66.614 278.881 65.9206 278.749 65.2439Z" fill="#836DA3"/>
<path d="M282.027 70.0542C282.59 70.3822 283.431 70.6028 283.338 71.2681C282.356 71.63 281.515 71.1609 280.674 71.0213C281.125 70.6971 281.576 70.3757 282.027 70.0542Z" fill="#9D7DD0"/>
<path d="M279.548 60.7354C279.953 61.7011 280.168 62.7179 280.374 63.7369C280.451 63.8063 280.604 63.9477 280.681 64.0198L280.853 64.1652C280.545 64.2089 279.934 64.2978 279.626 64.3414L279.614 64.0964C279.559 63.7251 279.5 63.3577 279.437 62.9887C279.082 62.9072 278.724 62.8296 278.363 62.7588C278.232 62.7368 277.969 62.6996 277.84 62.6804L277.98 62.4065C278.447 61.8295 278.987 61.2777 279.548 60.7354Z" fill="#9D957F"/>
<path d="M276.49 53.1187C276.214 53.8451 275.928 54.5681 275.669 55.2928L275.593 55.5377L275.518 55.7553C275.053 55.5296 274.585 55.3079 274.1 55.1029C273.322 55.2814 272.541 55.4818 271.774 55.7201C271.717 55.8222 271.61 56.0213 271.553 56.1205C271.46 56.289 271.274 56.623 271.182 56.7915C270.432 56.6302 269.678 56.4672 268.955 56.269C268.804 56.103 268.501 55.771 268.355 55.6039C268.537 55.5372 268.9 55.401 269.086 55.3331C270.033 55.1213 270.984 54.9441 271.934 54.7614C272.052 54.32 272.169 53.8814 272.287 53.4429L272.692 53.3972C272.875 53.3812 273.234 53.3477 273.412 53.3329C274.442 53.2485 275.465 53.187 276.49 53.1187Z" fill="#9F6DDE"/>
<path d="M277.517 58.5415C277.959 59.0813 278.331 59.6579 278.707 60.2334C277.69 60.53 276.669 60.8305 275.634 61.0779C275.473 61.0251 275.151 60.9169 274.995 60.8631C275.605 59.9905 276.552 59.2489 277.517 58.5415Z" fill="#9E71E0"/>
<path d="M278.363 62.7588C278.724 62.8296 279.082 62.9072 279.437 62.9887C279.5 63.3577 279.559 63.7251 279.614 64.0964C279.387 64.163 278.934 64.2935 278.712 64.3591C278.595 63.8247 278.483 63.2892 278.363 62.7588Z" fill="#CABBDB"/>
<path d="M279.614 64.0964L279.626 64.3415C279.343 64.6447 279.051 64.9446 278.749 65.2439C278.244 64.7687 277.698 64.3224 277.175 63.8611C276.92 63.9534 276.661 64.0468 276.406 64.1419C276.274 63.7794 276.141 63.4169 276.025 63.05C276.182 62.9749 276.498 62.8274 276.656 62.7523C276.952 62.7327 277.542 62.6973 277.84 62.6804C277.969 62.6996 278.232 62.7368 278.363 62.7588C278.483 63.2893 278.595 63.8247 278.712 64.3591C278.934 64.2936 279.387 64.1631 279.614 64.0964Z" fill="#7D59AF"/>
<path d="M279.85 67.729C280.929 68.2748 280.693 69.2507 280.056 70.1574C279.602 70.0189 279.152 69.882 278.698 69.7462C278.93 69.0527 279.377 68.3825 279.85 67.729Z" fill="#8E71C6"/>
<path d="M276.3 57.6644C276.791 57.889 277.155 58.2194 277.517 58.5415C276.552 59.2489 275.605 59.9905 274.995 60.8631C275.151 60.9169 275.474 61.0251 275.634 61.0779C276.45 61.3531 277.265 61.6284 278.042 61.9439C278.028 62.0583 277.997 62.2882 277.98 62.4065L277.84 62.6804C277.542 62.6972 276.952 62.7326 276.656 62.7523C275.221 62.6011 274.023 62.093 272.906 61.5516C272.826 61.4683 272.67 61.3006 272.59 61.2173C272.169 60.2945 271.92 59.314 271.669 58.3429C273.203 58.1024 274.786 57.5974 276.3 57.6644Z" fill="#DDC3FA"/>
<path d="M278.749 65.2438C278.881 65.9206 278.952 66.6139 279.03 67.3051C278.87 67.2524 278.544 67.1481 278.383 67.0954C277.075 66.5391 276.276 65.6102 275.629 64.6402C275.367 64.1419 274.601 64.0152 273.961 63.8334C273.882 64.45 273.817 65.069 273.747 65.6862C273.065 65.1628 272.265 64.7278 271.447 64.3124C271.714 63.3672 272.252 62.442 272.906 61.5516C274.023 62.093 275.221 62.6011 276.656 62.7523C276.498 62.8274 276.182 62.9748 276.025 63.05C276.141 63.4169 276.274 63.7793 276.406 64.1418C276.661 64.0467 276.92 63.9533 277.175 63.8611C277.698 64.3223 278.244 64.7686 278.749 65.2438Z" fill="#B68EF3"/>
<path d="M275.629 64.6403C276.276 65.6103 277.075 66.5392 278.383 67.0954C277.829 67.3636 277.269 67.6274 276.709 67.8883C276.336 67.674 275.968 67.4613 275.599 67.2459C274.943 66.7514 274.377 66.1969 273.747 65.6863C273.817 65.069 273.882 64.4501 273.961 63.8334C274.601 64.0152 275.367 64.142 275.629 64.6403Z" fill="#835DAF"/>
<path d="M275.017 57.0685C273.918 57.5246 272.807 57.9689 271.669 58.3429C271.305 58.4434 270.94 58.5411 270.575 58.636C270.127 58.4388 269.675 58.2456 269.227 58.0484C269.16 57.4499 269.085 56.8537 268.955 56.269C269.678 56.4672 270.432 56.6302 271.182 56.7915C271.274 56.6231 271.46 56.289 271.553 56.1206C271.874 56.6061 272.231 57.0761 272.58 57.5511C273.268 57.4176 273.957 57.2897 274.644 57.1506L275.017 57.0685Z" fill="#7F6D9E"/>
<path d="M275.139 54.8324C275.451 55.6948 275.681 56.583 275.842 57.4857C274.601 57.76 273.357 58.0198 272.114 58.2869C271.554 57.7004 270.979 57.1216 270.471 56.5175C270.586 56.3779 270.802 56.0992 270.917 55.956C272.313 55.5393 273.73 55.1712 275.139 54.8324Z" fill="#533B65"/>
<path d="M272.109 51.7161C272.278 52.2813 272.46 52.8459 272.692 53.3972L272.287 53.4429C270.989 53.8177 269.98 54.5608 269.086 55.3331C268.9 55.401 268.537 55.5372 268.355 55.6039C268.018 55.724 267.682 55.844 267.345 55.9641C267.468 56.422 267.596 56.8816 267.677 57.3506C267.56 57.7439 267.421 58.1345 267.281 58.525C266.861 58.2335 266.493 57.9042 266.175 57.5465C265.475 56.2917 264.195 55.3269 262.886 54.4179C261.989 54.0867 260.993 53.8837 260.017 53.6573C256.675 52.7993 253.355 51.9113 249.932 51.1677C246.607 50.6101 243.358 49.9214 240.008 49.4006C236.368 48.9246 232.749 48.4101 229.076 47.9966C227.056 47.715 224.981 47.5109 222.811 47.6165C224.87 48.5881 227.391 48.9988 229.92 49.3208C234.772 50.4416 239.892 51.1705 244.473 52.6722C241.549 52.2854 238.647 51.7765 235.47 52.0531C232.514 51.8934 229.615 51.596 226.766 51.1921C226.801 51.3055 226.871 51.5322 226.906 51.6484C224.799 51.1417 222.898 50.2954 221.662 49.0136C220.865 48.2935 220.291 47.2293 218.714 47.2269C212.952 46.9035 207.075 46.9131 201.206 46.9355C201.182 46.7597 201.133 46.4135 201.108 46.2377C204.291 45.8338 207.355 46.0662 210.47 46.0066C215.159 45.9232 219.649 46.4228 224.273 46.5425C226.322 46.9631 228.517 47.1021 230.681 47.2912C240.679 48.5057 250.601 50.0037 259.686 52.6866C260.55 52.8263 261.551 53.4798 262.495 52.7958C263.063 52.8742 263.639 52.9381 264.216 53.0021C264.4 53.3747 264.576 53.7495 264.784 54.1126C266.941 54.1242 269.564 54.002 271.339 52.6226C271.601 52.3221 271.857 52.02 272.109 51.7161Z" fill="#B8C979"/>
<path d="M268.437 52.1673C269.659 51.9056 270.895 51.7423 272.109 51.7162C271.857 52.02 271.601 52.3222 271.339 52.6226C270.39 52.6943 269.441 52.7811 268.489 52.8896C268.476 52.7077 268.45 52.3465 268.437 52.1673Z" fill="#8B8F7B"/>
<path d="M272.287 53.4429C272.169 53.8815 272.052 54.32 271.934 54.7614C270.984 54.9441 270.033 55.1213 269.086 55.3331C269.98 54.5608 270.989 53.8177 272.287 53.4429Z" fill="#CFC2D3"/>
<path d="M273.747 65.6863C274.377 66.1968 274.943 66.7514 275.599 67.2458C274.494 66.5185 273.012 66.0597 271.261 66.4361L271.487 66.3996C271.627 66.3769 271.904 66.3327 272.041 66.3111C271.746 65.959 271.445 65.6119 271.143 65.2648C271.244 64.9446 271.345 64.6271 271.447 64.3125C272.265 64.7279 273.065 65.1628 273.747 65.6863Z" fill="#E6CAFF"/>
<path d="M268.489 52.8896C269.441 52.781 270.39 52.6943 271.339 52.6226C269.564 54.002 266.941 54.1242 264.784 54.1126C266.04 53.7612 267.293 53.3835 268.489 52.8896Z" fill="#879650"/>
<path d="M272.906 61.5516C272.252 62.442 271.714 63.3673 271.447 64.3124C271.345 64.6271 271.244 64.9446 271.143 65.2648C271.445 65.6119 271.746 65.959 272.041 66.3111C271.904 66.3327 271.627 66.3769 271.487 66.3996C270.28 66.0048 269.594 65.1832 269.622 64.164C269.471 63.6329 269.642 62.8121 268.701 62.7141C268.183 62.6553 267.392 62.3706 266.947 62.831C266.396 63.3079 265.975 63.8426 265.504 64.3577C264.614 63.456 265.576 62.139 264.993 61.1579C264.082 60.3098 263.376 59.2961 263.895 58.0376C264.9 58.6721 265.717 59.4319 266.525 60.194C267.541 61.1874 269.251 61.6181 270.793 62.1356C271.142 61.2492 271.365 60.3575 271.422 59.4773C271.745 60.0851 272.105 60.6829 272.59 61.2173C272.67 61.3006 272.826 61.4683 272.906 61.5516Z" fill="#7A50BA"/>
<path d="M271.669 58.343C271.92 59.314 272.169 60.2946 272.59 61.2174C272.105 60.683 271.745 60.0852 271.422 59.4774C271.365 60.3576 271.142 61.2492 270.793 62.1357C269.251 61.6182 267.541 61.1875 266.525 60.194C265.717 59.432 264.9 58.6722 263.895 58.0377C263.728 57.9119 263.395 57.6602 263.224 57.5382C262.944 57.1733 262.693 56.7978 262.414 56.4357C263.553 57.1898 264.747 57.9022 265.901 58.6463C265.998 58.2792 266.1 57.9109 266.175 57.5466C266.493 57.9043 266.861 58.2336 267.281 58.5251C268.423 59.1586 269.691 59.6808 271.008 60.1388C270.865 59.6356 270.722 59.1353 270.575 58.636C270.94 58.5411 271.305 58.4434 271.669 58.343Z" fill="#B189EF"/>
<path d="M269.227 58.0485C269.675 58.2456 270.127 58.4389 270.575 58.636C270.722 59.1353 270.865 59.6356 271.008 60.1388C269.691 59.6807 268.423 59.1586 267.281 58.525C267.421 58.1345 267.56 57.744 267.677 57.3506C268.192 57.5836 268.708 57.8194 269.227 58.0485Z" fill="#CCABFB"/>
<path d="M268.416 51.8709L268.437 52.1673C268.45 52.3465 268.476 52.7077 268.489 52.8897C267.293 53.3836 266.04 53.7613 264.784 54.1127C264.576 53.7496 264.4 53.3748 264.216 53.0022C265.462 52.1986 266.964 52.0233 268.416 51.8709Z" fill="#4A5133"/>
<path d="M263.262 34.7578C264.046 37.1542 261.313 39.9812 258.011 41.2132C254.899 42.3763 251.613 43.1071 248.395 43.9753C245.409 44.7785 242.353 45.1904 239.345 45.3678C243.049 44.3245 246.856 43.5828 250.445 42.2111C253.78 40.9702 256.786 39.2432 259.783 37.5692C260.995 36.9213 261.953 36.0721 262.707 35.1577C261.818 35.3691 260.926 35.5871 260.052 35.8543C261.08 35.3992 262.175 35.0788 263.262 34.7578Z" fill="#B9CA75"/>
<path d="M268.355 55.6039C268.501 55.771 268.804 56.1031 268.955 56.2691C269.085 56.8537 269.16 57.4499 269.227 58.0484C268.708 57.8193 268.192 57.5836 267.677 57.3506C267.596 56.8816 267.468 56.422 267.345 55.9641C267.682 55.844 268.018 55.724 268.355 55.6039Z" fill="#503772"/>
<path d="M262.707 35.1578C261.953 36.0721 260.995 36.9214 259.783 37.5693C256.786 39.2433 253.78 40.9703 250.445 42.2112C246.856 43.5829 243.049 44.3246 239.345 45.3679C237.577 45.5812 235.818 45.6785 234.078 45.6988C237.042 44.9285 240.072 44.5177 243.021 43.6915C245.824 42.9137 248.633 42.0952 251.289 40.9705C247.332 41.4652 243.509 42.9264 239.558 43.5451C239.669 43.2969 239.78 43.0487 239.892 42.8005C237.28 43.5121 234.625 43.9424 231.975 44.3621C236.602 43.1701 241.275 42.1963 245.946 41.2499C249.233 40.489 252.607 39.9381 255.767 38.7411C257.556 38.1091 258.605 36.8017 260.052 35.8544C260.926 35.5872 261.818 35.3692 262.707 35.1578Z" fill="#74814E"/>
<path d="M268.701 62.7142C269.642 62.8122 269.471 63.633 269.622 64.1641C267.453 65.0986 265.019 65.613 262.857 65.166C262.381 64.1354 262.088 63.0409 262.244 61.8678C262.872 61.8581 263.497 61.8524 264.125 61.8455C264.341 61.6739 264.773 61.3307 264.993 61.158C265.576 62.139 264.615 63.4561 265.505 64.3578C265.975 63.8427 266.396 63.308 266.947 62.831C267.392 62.3706 268.183 62.6554 268.701 62.7142Z" fill="#AC87E1"/>
<path d="M262.886 54.4179C264.195 55.3269 265.475 56.2917 266.175 57.5465C266.1 57.9109 265.998 58.2791 265.901 58.6463C264.747 57.9022 263.553 57.1898 262.414 56.4356L262.235 56.2651C262.447 55.6486 262.66 55.0349 262.886 54.4179Z" fill="#6D774F"/>
<path d="M263.895 58.0377C263.376 59.2962 264.082 60.3098 264.993 61.158C264.773 61.3307 264.341 61.6739 264.125 61.8455C263.497 61.8524 262.872 61.8581 262.244 61.8678C262.149 60.4537 262.19 58.9645 263.224 57.5382C263.395 57.6602 263.728 57.9118 263.895 58.0377Z" fill="#583A7E"/>
<path d="M262.495 52.7958C261.551 53.4799 260.55 52.8264 259.686 52.6867C250.601 50.0038 240.679 48.5058 230.681 47.2912C228.517 47.1021 226.322 46.9632 224.273 46.5426C225.32 46.3248 226.379 46.0679 227.428 46.0382C228.737 46.7798 230.683 46.6504 232.338 46.8924C242.824 48.1076 252.948 50.0782 262.495 52.7958Z" fill="#7D8850"/>
<path d="M179.414 46.9303C179.322 47.3979 179.226 47.8666 179.133 48.3343C178.431 47.7025 177.117 47.9199 175.998 48.0521C168.709 49.0716 161.404 50.1642 154.145 51.6962C146.828 53.4592 139.42 54.9474 132.269 57.3425C122.165 60.2205 112.331 63.8937 102.808 67.9955C90.5269 73.1895 78.9066 79.3915 68.019 86.1902C64.9863 88.0143 62.3279 90.175 59.1058 91.8224C59.7677 90.8789 60.7612 90.0621 61.8148 89.304C68.9478 84.6186 76.2941 80.0826 84.1037 76.0328C92.871 71.3644 102.104 67.2415 111.539 63.5046C117.914 61.0631 124.436 58.9205 130.977 56.8627C136.308 55.3145 141.679 53.8963 147.056 52.5363C153.119 51.2319 159.182 49.8617 165.282 48.8795C169.787 48.1723 174.288 47.6365 178.792 47.0254C178.945 47.0021 179.257 46.9546 179.414 46.9303Z" fill="#7D8850"/>
<path d="M260.017 53.6573C260.993 53.8837 261.989 54.0867 262.886 54.4179C262.66 55.0349 262.447 55.6486 262.235 56.2651C261.348 55.4762 260.58 54.6137 260.017 53.6573Z" fill="#7D8850"/>
<path d="M239.558 43.5451C243.509 42.9264 247.332 41.4652 251.289 40.9704C248.633 42.0951 245.824 42.9137 243.021 43.6915C240.072 44.5177 237.042 44.9284 234.078 45.6987C231.847 45.8896 229.633 45.9801 227.428 46.0382C226.379 46.0679 225.32 46.3247 224.273 46.5425C219.649 46.4229 215.159 45.9232 210.47 46.0066C207.355 46.0662 204.291 45.8338 201.108 46.2377C201.086 46.121 201.04 45.882 201.017 45.7653L200.903 45.5564C206.869 45.5112 212.848 45.471 218.69 45.8269C222.971 46.257 227.553 45.0141 231.975 44.3621C234.624 43.9424 237.28 43.5121 239.892 42.8004C239.78 43.0486 239.669 43.2968 239.558 43.5451Z" fill="#4D562F"/>
<path d="M244.473 52.6722C246.415 53.2411 248.693 53.7709 249.557 55.224C250.05 55.8851 249.48 56.6903 248.985 57.3973C248.652 57.2322 248.324 57.0687 247.992 56.9063C247.748 55.5473 246.414 54.6299 244.87 54.023C242.141 52.8032 238.637 52.6528 235.47 52.053C238.646 51.7765 241.549 52.2854 244.473 52.6722Z" fill="#737D50"/>
<path d="M244.87 54.0231C246.414 54.6299 247.748 55.5474 247.992 56.9064C242.165 53.6227 233.609 53.8566 226.906 51.6484C226.871 51.5322 226.801 51.3055 226.766 51.1921C229.615 51.5961 232.514 51.8935 235.47 52.0531C238.637 52.6529 242.141 52.8033 244.87 54.0231Z" fill="#4B522C"/>
<path d="M227.976 48.432C228.621 48.7321 229.254 49.0412 229.92 49.3207C227.391 48.9988 224.87 48.5881 222.811 47.6165C224.981 47.5109 227.056 47.715 229.076 47.9965C228.804 48.1055 228.249 48.323 227.976 48.432Z" fill="#7D8850"/>
<path d="M200.904 45.5563L201.017 45.7653C198.67 46.5499 196.219 46.9163 193.826 46.968C193.867 46.6069 193.908 46.2486 193.945 45.8886C194.467 45.8475 194.987 45.8009 195.511 45.7503C197.326 45.5783 199.124 45.5453 200.904 45.5563Z" fill="#9AA46B"/>
<path d="M201.017 45.7653C201.04 45.882 201.086 46.121 201.108 46.2377C201.133 46.4136 201.182 46.7597 201.206 46.9356C199.052 47.1149 196.887 47.3388 194.765 47.3239C193.308 47.3072 191.802 47.4205 190.319 47.818L190.201 47.5923C190.157 47.5113 190.073 47.3482 190.029 47.2672C190.579 46.9643 191.129 46.6643 191.674 46.3626C191.569 46.2502 191.354 46.0294 191.248 45.917C192.147 45.9217 193.038 45.9342 193.945 45.8887C193.908 46.2487 193.867 46.607 193.826 46.9681C196.219 46.9164 198.67 46.55 201.017 45.7653Z" fill="#CBD2A3"/>
<path d="M197.243 42.6857C197.681 42.9783 197.304 43.4745 197.157 43.8729C195.774 43.9953 194.383 44.1255 192.997 44.2574C193.54 43.9115 194.083 43.5685 194.625 43.2227C193.67 43.1732 192.713 43.1305 191.755 43.085L191.83 42.8523C193.592 41.9674 195.799 42.0014 197.243 42.6857Z" fill="#9668DD"/>
<path d="M197.157 43.8729C196.86 44.2397 196.545 44.6026 196.224 44.9638C194.496 45.376 192.757 45.4649 191.116 45.309C191.353 44.5692 191.554 43.8271 191.755 43.085C192.713 43.1305 193.67 43.1732 194.625 43.2227C194.083 43.5685 193.54 43.9115 192.997 44.2574C194.383 44.1255 195.774 43.9953 197.157 43.8729Z" fill="#BB98E8"/>
<path d="M196.224 44.9638C195.988 45.2247 195.752 45.4884 195.511 45.7504C194.987 45.8009 194.467 45.8476 193.945 45.8887C193.038 45.9342 192.147 45.9217 191.248 45.917C190.594 45.9127 189.942 45.8989 189.284 45.8956C189.083 45.5604 188.872 45.2341 188.647 44.9112C188.906 44.4348 189.175 43.9619 189.439 43.4901C190.268 43.5521 191.069 43.1581 191.83 42.8523L191.755 43.0849C191.554 43.827 191.353 44.5691 191.116 45.3089C192.757 45.4649 194.496 45.376 196.224 44.9638Z" fill="#DBC5F9"/>
<path d="M194.756 48.8494C195.614 49.6311 195.088 50.8343 194.963 51.8433C193.884 52.1415 192.59 52.8981 191.574 52.4852C190.713 52.0066 190.248 51.2663 189.596 50.6541C190.57 51.0095 191.539 51.3754 192.553 51.6812C192.271 51.1762 191.977 50.6745 191.679 50.1767C191.97 50.0688 192.265 49.9598 192.557 49.8548C192.34 49.3621 192.128 48.8684 191.92 48.3735C192.9 48.4369 194.188 48.2206 194.756 48.8494Z" fill="#D4BEF2"/>
<path d="M188.218 39.8281C189.364 40.0118 190.705 40.4096 190.541 41.4381C189.213 41.5846 187.679 41.9267 186.601 41.4166C186.26 40.8584 187.399 40.3857 187.865 39.9348L188.218 39.8281Z" fill="#DBC3FB"/>
<path d="M190.541 41.4381C190.206 42.1264 189.806 42.8052 189.439 43.4901C189.175 43.9619 188.906 44.4349 188.647 44.9112C187.748 45.4485 186.861 46.0003 185.92 46.5007C185.391 46.7115 184.848 46.9077 184.307 47.1067C184.29 47.3088 184.259 47.709 184.242 47.911C184.128 47.7501 183.894 47.4237 183.776 47.2639L183.63 47.0666C184.517 46.6644 185.515 46.331 186.224 45.7459C186.477 45.2294 186.44 44.7097 186.502 44.1963C184.99 44.3888 183.472 44.7387 182.042 45.3015C181.877 45.3638 181.551 45.49 181.386 45.555C180.699 45.9905 180.052 46.4573 179.414 46.9303C179.257 46.9546 178.945 47.0021 178.792 47.0253C178.014 45.8631 176.82 44.7226 177.524 43.1903C177.77 43.1455 178.266 43.0603 178.516 43.0143C178.523 43.4045 178.531 43.7975 178.542 44.1893C179.637 43.9141 180.709 43.5579 181.733 43.119C182.064 43.1798 182.399 43.2367 182.73 43.2947C183.874 41.8122 185.53 40.3868 187.865 39.9348C187.399 40.3857 186.26 40.8584 186.601 41.4166C187.679 41.9267 189.213 41.5846 190.541 41.4381Z" fill="#8859C8"/>
<path d="M191.248 45.917C191.354 46.0294 191.568 46.2502 191.674 46.3625C191.129 46.6643 190.579 46.9643 190.029 47.2671C189.782 46.8096 189.543 46.3471 189.284 45.8956C189.942 45.8989 190.594 45.9127 191.248 45.917Z" fill="#857E7B"/>
<path d="M191.92 48.3735C192.128 48.8684 192.34 49.3622 192.557 49.8548C192.265 49.9599 191.97 50.0688 191.679 50.1767C191.977 50.6745 192.271 51.1762 192.553 51.6812C191.539 51.3755 190.57 51.0095 189.596 50.6542C189.218 50.456 188.7 50.4932 188.205 50.536C188.007 50.5921 187.607 50.7053 187.408 50.7614C187.505 51.1724 187.641 51.579 187.666 52.006C186.773 52.7811 185.364 52.8415 184.2 52.9587C183.715 52.7565 183.224 52.562 182.746 52.3548C182.243 51.6875 181.78 51.0008 181.242 50.352C182.152 49.4887 183.18 48.6864 184.242 47.911C184.798 47.7801 185.348 47.6475 185.904 47.5166C185.78 47.7682 185.661 48.0186 185.538 48.2702C186.294 48.8725 186.791 49.6162 187.262 50.3638L187.448 50.4277C187.614 50.4011 187.946 50.348 188.112 50.3215C189.053 50.1711 189.989 50.0341 190.923 49.8914C190.793 49.289 190.658 48.6848 190.465 48.099C190.939 48.2085 191.422 48.3064 191.92 48.3735Z" fill="#A47FEF"/>
<path d="M190.029 47.2671C190.073 47.3481 190.157 47.5112 190.201 47.5922C189.319 48.4449 188.662 49.375 188.112 50.3215C187.946 50.348 187.614 50.4011 187.448 50.4276C187.546 49.6324 187.678 48.8338 187.828 48.0364C187.19 47.528 186.552 47.0169 185.92 46.5007C186.861 46.0003 187.748 45.4484 188.647 44.9111C188.872 45.2341 189.083 45.5604 189.284 45.8956C189.543 46.347 189.782 46.8096 190.029 47.2671Z" fill="#523381"/>
<path d="M190.201 47.5922L190.319 47.8179L190.465 48.0989C190.658 48.6847 190.793 49.2889 190.923 49.8914C189.989 50.034 189.053 50.171 188.112 50.3215C188.662 49.375 189.319 48.4449 190.201 47.5922Z" fill="#7551A9"/>
<path d="M185.92 46.5007C186.552 47.0168 187.19 47.528 187.828 48.0363C187.678 48.8338 187.546 49.6324 187.448 50.4276L187.262 50.3637C186.791 49.6161 186.294 48.8725 185.537 48.2701C185.661 48.0186 185.78 47.7681 185.904 47.5166C185.348 47.6475 184.798 47.7801 184.242 47.911C184.259 47.7089 184.29 47.3087 184.307 47.1067C184.848 46.9077 185.391 46.7114 185.92 46.5007Z" fill="#734AAF"/>
<path d="M188.205 50.5359C188.445 51.4472 188.515 52.4041 188.398 53.378C187.632 53.6341 186.867 53.9288 186.067 54.0923C185.345 53.801 184.818 53.3408 184.2 52.9586C185.364 52.8415 186.773 52.7811 187.666 52.006C187.641 51.5789 187.505 51.1723 187.408 50.7614C187.607 50.7053 188.007 50.592 188.205 50.5359Z" fill="#BCADE0"/>
<path d="M186.502 44.1963C186.44 44.7097 186.477 45.2294 186.224 45.746C185.515 46.331 184.517 46.6644 183.63 47.0667C183.166 46.4458 182.65 45.8478 182.042 45.3015C183.472 44.7388 184.99 44.3888 186.502 44.1963Z" fill="#AD81E7"/>
<path d="M184.242 47.911C183.18 48.6864 182.152 49.4886 181.242 50.3519C180.246 49.9005 179.126 49.5154 178.628 48.7002L179.065 48.6757C179.324 48.9625 179.562 49.2548 179.805 49.5488C180.416 49.2086 181.03 48.8646 181.634 48.5172C182.348 48.1013 183.061 47.6798 183.776 47.2639C183.894 47.4237 184.128 47.75 184.242 47.911Z" fill="#B7B7B7"/>
<path d="M182.042 45.3014C182.65 45.8477 183.166 46.4458 183.63 47.0666L183.776 47.2639C183.061 47.6798 182.348 48.1012 181.634 48.5171C181.557 48.2804 181.48 48.0436 181.403 47.8068C181.743 47.4344 182.079 47.0632 182.415 46.6919C182.073 46.3107 181.727 45.9334 181.386 45.555C181.551 45.4899 181.877 45.3637 182.042 45.3014Z" fill="#999D8B"/>
<path d="M179.221 42.6129C180.057 42.7838 180.89 42.9587 181.733 43.119C180.709 43.5579 179.637 43.9141 178.542 44.1893C178.531 43.7974 178.523 43.4045 178.516 43.0143C178.266 43.0602 177.77 43.1454 177.524 43.1903C178.09 42.9969 178.659 42.8024 179.221 42.6129Z" fill="#DDC0FB"/>
<path d="M181.386 45.555C181.727 45.9334 182.073 46.3107 182.415 46.6919C182.079 47.0632 181.743 47.4344 181.403 47.8068C181.48 48.0436 181.557 48.2804 181.634 48.5172C181.03 48.8646 180.416 49.2086 179.805 49.5488C179.562 49.2548 179.324 48.9625 179.065 48.6757L179.133 48.3342C179.226 47.8666 179.322 47.3979 179.414 46.9302C180.052 46.4573 180.699 45.9905 181.386 45.555Z" fill="#5A6232"/>
<path d="M91.9911 76.741C90.9352 77.3082 89.8595 77.8508 88.7322 78.3175C82.4157 80.8299 75.946 83.135 69.8624 86.019C70.2224 85.9704 70.945 85.8666 71.305 85.818C68.2433 87.186 65.0923 88.4194 61.9368 89.636C63.0627 88.8495 64.2506 88.1122 65.4514 87.3895C65.0981 87.4303 64.3959 87.5107 64.0426 87.5515C64.7299 87.2327 65.4029 86.8937 66.0725 86.5587C71.0597 84.6209 75.8555 82.3663 80.8765 80.4882C84.5536 79.1797 88.1585 77.6512 91.9911 76.741Z" fill="#798B3C"/>
<path d="M66.082 83.6676C64.5736 86.6065 62.3975 89.5058 59.5412 92.0547C59.4794 91.8738 59.3482 91.5169 59.2864 91.336C60.1502 90.1678 60.9436 88.9857 61.7084 87.7962C62.7182 86.2448 64.0814 84.7364 66.082 83.6676Z" fill="#758541"/>
</g>
<defs>
<clipPath id="clip0_201_320">
<rect width="91" height="309" fill="white" transform="translate(298.959 0.562836) rotate(75)"/>
</clipPath>
</defs>
</svg>
