<svg width="323" height="169" viewBox="0 0 323 169" fill="none" xmlns="http://www.w3.org/2000/svg">
<g clip-path="url(#clip0_201_320)">
<path d="M6.05907 90.3904C4.69045 89.3596 4.04799 87.9397 2.99742 86.7369C3.99168 86.3208 4.96943 85.8763 5.93664 85.4256C6.49967 85.969 7.11622 86.4801 7.7814 86.9573C8.18496 87.1873 8.62133 87.3906 9.06639 87.5766C7.79725 88.4583 8.39821 89.4913 8.72388 90.3586C7.84027 90.359 6.95137 90.3727 6.05907 90.3904Z" fill="#8755D0"/>
<path d="M2.99738 86.7369C2.56763 86.1937 2.45811 85.5198 2.98032 84.8502C3.68904 84.7441 4.39702 84.6352 5.105 84.5263C5.37742 84.8303 5.65324 85.1305 5.9366 85.4256C4.96938 85.8763 3.99164 86.3209 2.99738 86.7369Z" fill="#624492"/>
<path d="M2.98031 84.8502C3.11888 84.6215 3.26084 84.389 3.40769 84.1581C3.12317 83.4443 2.87676 82.6904 3.19969 81.8737C3.68509 82.2434 4.16145 82.6125 4.6461 82.9794C4.89614 83.1668 5.14957 83.3502 5.40714 83.5326C5.30944 83.864 5.20759 84.1965 5.10499 84.5263C4.39701 84.6352 3.68904 84.7441 2.98031 84.8502Z" fill="#C3BCA8"/>
<path d="M4.64616 82.9794C4.16151 82.6125 3.68514 82.2434 3.19974 81.8737C4.0163 81.0265 5.22855 81.4738 6.17937 81.5751C5.66918 82.041 5.1556 82.5108 4.64616 82.9794Z" fill="#827974"/>
<path d="M9.62518 91.8828C8.41108 91.4121 7.154 90.9798 6.05907 90.3904C6.95137 90.3727 7.84027 90.359 8.72388 90.3587C8.39821 89.4913 7.79725 88.4583 9.06639 87.5766C9.24576 87.4836 9.60863 87.2966 9.788 87.2037C10.669 87.608 11.5787 87.9867 12.4167 88.4295C11.6612 88.8414 10.7961 89.2258 10.3045 89.8274C10.0417 90.2719 10.2334 90.7053 10.2533 91.1279C10.0953 91.3169 9.78325 91.6938 9.62518 91.8828Z" fill="#BE8FF5"/>
<path d="M5.93662 85.4257C5.65326 85.1305 5.37744 84.8303 5.10501 84.5263C5.20761 84.1965 5.30946 83.864 5.40717 83.5326C6.26713 84.1401 7.18741 84.7075 8.11033 85.2682C8.01712 85.8318 7.90998 86.3932 7.78137 86.9573C7.1162 86.4802 6.49965 85.9691 5.93662 85.4257Z" fill="#D9B0FF"/>
<path d="M5.40715 83.5326C5.14957 83.3503 4.89614 83.1668 4.6461 82.9794C5.15554 82.5108 5.66912 82.041 6.17931 81.5751C6.70395 81.6769 7.21576 81.7971 7.72682 81.9146C7.76474 81.3268 7.81168 80.7397 7.85299 80.1481C8.20821 80.0319 8.92131 79.793 9.28068 79.6757C10.8992 80.7443 11.0479 82.476 11.3479 84.0595C10.2573 84.4475 9.17724 84.8417 8.11031 85.2682C7.18739 84.7075 6.26711 84.1401 5.40715 83.5326Z" fill="#9F6AED"/>
<path d="M9.06637 87.5766C8.62132 87.3906 8.18495 87.1873 7.78138 86.9573C7.90998 86.3931 8.01712 85.8318 8.11034 85.2681C9.17727 84.8416 10.2573 84.4474 11.3479 84.0595C11.3988 84.2493 11.5013 84.6318 11.5529 84.8245C10.4677 85.1332 8.97455 85.3777 8.63367 86.3429C8.94143 86.6794 9.35622 86.9513 9.78798 87.2036C9.60862 87.2966 9.24574 87.4836 9.06637 87.5766Z" fill="#9785AF"/>
<path d="M10.5944 92.2515C10.2693 92.1321 9.9476 92.0089 9.62517 91.8828C9.78325 91.6938 10.0953 91.3169 10.2533 91.1279C11.7163 90.721 13.2866 90.5157 14.6577 89.8819C15.0217 89.2517 15.1098 88.6027 15.1885 87.9681C15.864 87.44 16.5396 86.9118 17.2144 86.3809C17.598 87.2986 18.0787 88.1812 18.6868 89.0088C18.5858 89.0958 18.3871 89.2657 18.2853 89.3498C17.9639 88.631 17.6267 87.9193 17.2563 87.2166C16.2462 88.2862 16.6456 89.3792 16.953 90.3772C16.9833 90.4738 17.0399 90.6681 17.066 90.7658C16.8089 90.7509 16.2947 90.7211 16.0376 90.7062C16.1021 91.4939 16.1783 92.2755 16.276 93.0544L16.1019 92.9185C15.1207 91.6432 12.6812 91.1896 10.5944 92.2515Z" fill="#BBC78B"/>
<path d="M10.2533 91.1279C10.2333 90.7053 10.0417 90.2719 10.3045 89.8274C10.7961 89.2258 11.6612 88.8414 12.4167 88.4295C12.7338 88.6019 13.0509 88.7743 13.3638 88.9478C12.9869 87.8727 12.6824 86.7693 12.1213 85.7525C12.2031 85.2787 12.3112 84.8039 12.4498 84.3268C13.7782 85.3235 14.7274 86.5624 15.1884 87.9681C15.1098 88.6027 15.0217 89.2517 14.6577 89.8819C13.2866 90.5157 11.7163 90.7209 10.2533 91.1279Z" fill="#D4BDF8"/>
<path d="M9.78797 87.2037C9.35621 86.9514 8.94142 86.6795 8.63366 86.343C8.97454 85.3778 10.4677 85.1333 11.5529 84.8246C11.7387 85.1369 11.9279 85.4453 12.1213 85.7526C12.6824 86.7693 12.9869 87.8728 13.3638 88.9479C13.0509 88.7744 12.7338 88.602 12.4167 88.4296C11.5787 87.9868 10.669 87.6081 9.78797 87.2037Z" fill="#606A44"/>
<path d="M10.5943 92.2515C12.6811 91.1896 15.1207 91.6432 16.1019 92.9185C15.1563 93.0521 14.2047 93.1635 13.2794 93.157C12.3559 92.8928 11.4717 92.5761 10.5943 92.2515Z" fill="#656D39"/>
<path d="M14.867 100.342C13.9496 99.8184 13.0822 99.183 12.9524 98.2512C13.6039 97.915 14.2506 97.5772 14.9021 97.241C15.2909 97.7144 15.8297 98.1506 15.91 98.7485C16.0106 99.323 15.2974 99.8433 14.867 100.342Z" fill="#9C6EE1"/>
<path d="M12.9524 98.2512C12.7594 97.5308 12.583 96.806 12.3402 96.099C13.8361 96.2787 15.3232 96.4758 16.8036 96.6806C17.276 97.383 17.7917 98.0647 18.3625 98.7198C18.1695 99.0768 17.9765 99.4337 17.7786 99.789C18.0811 99.8905 18.3787 99.9903 18.6805 100.089C17.6982 100.334 16.7166 100.582 15.74 100.832C15.444 100.672 15.1521 100.511 14.867 100.342C15.2974 99.8433 16.0106 99.323 15.91 98.7485C15.8297 98.1505 15.291 97.7143 14.9021 97.241C14.2506 97.5771 13.604 97.915 12.9524 98.2512Z" fill="#DABBF7"/>
<path d="M12.3402 96.099C12.1856 95.6048 11.9485 95.1176 12.0032 94.5763C12.3497 94.0794 12.8316 93.6241 13.2793 93.157C14.2047 93.1634 15.1563 93.0521 16.1019 92.9184L16.2759 93.0543C17.4131 93.818 18.6837 94.483 19.686 95.3397C19.6206 95.444 19.4859 95.6537 19.4157 95.7563C17.4498 95.4631 15.5013 95.1353 13.5898 94.7467C13.1738 95.1993 12.757 95.6491 12.3402 96.099Z" fill="#9562E2"/>
<path d="M12.3402 96.099C12.757 95.6492 13.1738 95.1993 13.5899 94.7467C15.5014 95.1353 17.4498 95.4631 19.4157 95.7563C19.1613 96.1327 18.8971 96.5057 18.6518 96.8827C18.0329 96.827 17.416 96.7619 16.8036 96.6806C15.3232 96.4758 13.8361 96.2788 12.3402 96.099Z" fill="#512F82"/>
<path d="M15.1884 87.9681C14.7274 86.5625 13.7782 85.3235 12.4498 84.3268C12.7551 83.6435 13.2179 82.9838 13.7058 82.3354C13.739 82.6916 13.7764 83.0466 13.8139 83.4017C15.2111 83.7605 16.108 84.5556 16.2876 85.6566C16.4278 85.5832 16.7081 85.4362 16.8525 85.3616C16.9625 85.7062 17.0843 86.0446 17.2144 86.3809C16.5396 86.9118 15.864 87.44 15.1884 87.9681Z" fill="#B284F5"/>
<path d="M18.6804 100.089C18.3787 99.9902 18.081 99.8904 17.7785 99.789C17.9764 99.4337 18.1694 99.0767 18.3624 98.7198C17.7917 98.0647 17.2759 97.383 16.8035 96.6806C17.4159 96.7619 18.0329 96.827 18.6517 96.8826L18.5679 97.0338C18.6793 97.4498 18.8432 97.8458 19.0153 98.2396C19.0236 98.8838 19.0063 99.5318 18.9626 100.181L18.6804 100.089Z" fill="#AF93D7"/>
<path d="M19.686 95.3397C18.6837 94.483 17.4131 93.818 16.276 93.0544C16.8211 93.0669 17.3613 93.0778 17.9023 93.0914C17.7291 92.644 17.5594 92.1928 17.3938 91.7404C18.57 92.302 19.752 92.8681 20.6466 93.6548C20.4619 94.0096 20.2723 94.3626 20.0729 94.7123C19.9774 94.8696 19.7822 95.1852 19.686 95.3397Z" fill="#D1B2F9"/>
<path d="M16.276 93.0543C16.1783 92.2755 16.1021 91.4939 16.0376 90.7062C16.2947 90.7211 16.8089 90.7509 17.066 90.7658C17.1633 91.0958 17.2723 91.4198 17.3938 91.7403C17.5594 92.1927 17.7291 92.644 17.9023 93.0914C17.3613 93.0777 16.8211 93.0669 16.276 93.0543Z" fill="#EEE2F2"/>
<path d="M16.2876 85.6567C16.108 84.5556 15.2111 83.7605 13.8139 83.4017C13.7764 83.0467 13.739 82.6916 13.7058 82.3354C14.4307 82.4554 15.4497 82.314 15.8652 82.8042C16.4305 83.5714 16.5471 84.5038 16.8525 85.3617C16.7081 85.4363 16.4278 85.5832 16.2876 85.6567Z" fill="#7554BA"/>
<path d="M20.5337 100.625C19.994 100.5 19.4732 100.346 18.9626 100.181C19.0063 99.5318 19.0236 98.8837 19.0153 98.2396C19.2677 98.154 19.7717 97.98 20.0241 97.8944C20.9438 97.9293 21.8404 98.0272 22.745 98.1051C22.8125 98.2246 22.9443 98.4676 23.0077 98.5883L23.088 98.7553C22.2601 98.9801 21.4303 99.2145 20.6046 99.4477C20.9079 99.7345 21.2105 100.018 21.5123 100.3C21.2675 100.38 20.7785 100.544 20.5337 100.625Z" fill="#52337F"/>
<path d="M19.0153 98.2396C18.8432 97.8458 18.6794 97.4498 18.5679 97.0338C19.0715 97.3059 19.5533 97.5957 20.0242 97.8945C19.7718 97.9801 19.2677 98.1541 19.0153 98.2396Z" fill="#DCC7E4"/>
<path d="M18.5679 97.0338L18.6517 96.8827C18.8971 96.5057 19.1613 96.1327 19.4157 95.7563C19.4859 95.6537 19.6207 95.444 19.686 95.3397C19.7822 95.1852 19.9774 94.8696 20.073 94.7123C20.7419 94.557 21.4134 94.3951 22.0883 94.2621C21.9146 94.7575 21.7485 95.2479 21.5865 95.7372C21.162 95.6774 20.7408 95.6137 20.3155 95.5511C20.1525 96.2023 19.9977 96.8512 19.852 97.5007C20.6179 97.4421 21.4048 97.3959 22.1474 97.1011C22.3482 97.4364 22.5483 97.7688 22.745 98.1051C21.8405 98.0273 20.9438 97.9294 20.0242 97.8945C19.5533 97.5957 19.0715 97.3059 18.5679 97.0338Z" fill="#9A9A77"/>
<path d="M17.3937 91.7404C17.2723 91.4198 17.1633 91.0959 17.066 90.7658C17.0398 90.6681 16.9833 90.4738 16.953 90.3771C17.3997 90.039 17.8505 89.6997 18.2852 89.3498C18.387 89.2657 18.5857 89.0958 18.6868 89.0088C19.2293 89.2106 19.7881 89.39 20.3401 89.5773C20.0813 89.6556 19.5645 89.8151 19.3057 89.8934C20.0739 91.3185 21.5581 92.3662 23.1626 93.2829L23.2936 93.4902C22.4133 93.5525 21.5265 93.6076 20.6466 93.6548C19.752 92.8681 18.57 92.302 17.3937 91.7404Z" fill="#B687F8"/>
<path d="M16.953 90.3772C16.6456 89.3792 16.2462 88.2863 17.2562 87.2166C17.6266 87.9194 17.9638 88.631 18.2852 89.3499C17.8506 89.6998 17.3997 90.039 16.953 90.3772Z" fill="#78804C"/>
<path d="M21.0651 101.829C21.1015 101.451 21.1338 101.074 21.1653 100.695C21.9741 100.448 22.7697 100.169 23.5668 99.8959C24.2872 100.215 25.0016 100.544 25.7111 100.871L25.3798 101.077C24.2134 101.099 23.0318 101.197 21.8487 101.323C21.903 101.476 22.0068 101.78 22.0604 101.93C21.728 101.9 21.399 101.865 21.0651 101.829Z" fill="#B9B699"/>
<path d="M21.1653 100.695C21.0095 100.677 20.6895 100.643 20.5337 100.625C20.7785 100.544 21.2675 100.38 21.5124 100.3C21.2105 100.019 20.9079 99.7345 20.6046 99.4477C21.4303 99.2145 22.2601 98.9802 23.088 98.7554C23.2556 99.1324 23.4074 99.5167 23.5668 99.8959C22.7697 100.169 21.974 100.448 21.1653 100.695Z" fill="#714FB6"/>
<path d="M22.1474 97.1011C21.4048 97.3958 20.6179 97.4421 19.852 97.5007C19.9977 96.8512 20.1524 96.2022 20.3154 95.551C20.7408 95.6136 21.1619 95.6773 21.5865 95.7372C21.7485 95.2479 21.9146 94.7575 22.0883 94.262C22.6294 94.2098 23.1735 94.1688 23.7115 94.1383C23.9536 94.1303 24.437 94.1115 24.6784 94.1007C24.7138 94.2827 24.7889 94.6457 24.8243 94.8277C24.9066 95.1348 24.9972 95.4397 25.0919 95.7435C24.8896 95.8336 24.4898 96.0156 24.2875 96.1057C23.5671 96.4334 22.858 96.77 22.1474 97.1011Z" fill="#5B663C"/>
<path d="M27.7143 105.336C25.5394 105.341 23.8812 104.454 24.3669 102.986C24.7981 103.095 25.2343 103.203 25.6648 103.309C25.6175 103.752 25.5852 104.192 25.5679 104.628C26.0586 104.299 26.5436 103.968 27.0286 103.638C28.9649 103.382 30.9062 103.125 32.8565 102.782C33.0572 102.911 33.2629 103.039 33.4678 103.163C31.5322 103.861 29.7128 104.753 27.7143 105.336Z" fill="#764FB5"/>
<path d="M22.0603 101.93C22.0068 101.78 21.903 101.476 21.8487 101.323C23.0318 101.197 24.2134 101.099 25.3798 101.077C25.5213 101.108 25.8001 101.171 25.9375 101.203C26.0627 101.289 26.3181 101.463 26.4433 101.549C25.0127 102.375 23.4689 102.083 22.0603 101.93Z" fill="#57583A"/>
<path d="M24.6161 104.255C24.1377 103.917 23.653 103.574 23.1731 103.231C24.7193 102.671 26.3411 102.394 28.0014 102.415C28.6193 102.483 29.2387 102.556 29.8597 102.635C30.5649 103.492 31.2636 104.363 31.9526 105.236C30.0201 105.376 28.0724 105.344 26.1295 105.31C25.7488 105.047 24.992 104.519 24.6161 104.255Z" fill="#543684"/>
<path d="M20.073 94.7123C20.2724 94.3626 20.462 94.0096 20.6467 93.6548C21.5266 93.6076 22.4133 93.5526 23.2936 93.4902C23.3988 93.6506 23.6105 93.9769 23.7115 94.1384C23.1735 94.1688 22.6294 94.2099 22.0883 94.2621C21.4134 94.395 20.7419 94.557 20.073 94.7123Z" fill="#B2A0B1"/>
<path d="M27.0196 110.528C25.56 110.318 24.9544 109.334 24.3934 108.467C24.8379 108.153 25.2808 107.834 25.7372 107.532C26.7895 107.747 27.9234 107.802 29.0823 107.752C28.1276 107.918 27.1725 108.099 26.2189 108.286C26.6192 108.454 27.0237 108.621 27.4281 108.788C26.7884 109.052 26.1528 109.315 25.5172 109.578C27.4075 110.053 29.5782 109.851 31.6995 109.564C31.8568 109.588 32.1748 109.631 32.3356 109.651C30.6205 110.195 28.6976 110.94 27.0196 110.528Z" fill="#D7C0FA"/>
<path d="M23.1626 93.283C21.5581 92.3662 20.0739 91.3185 19.3058 89.8934C19.5645 89.8151 20.0813 89.6557 20.3401 89.5773C20.4878 89.5318 20.7831 89.4407 20.9349 89.394C21.2987 90.8347 22.5686 91.9279 23.1626 93.283Z" fill="#945DE8"/>
<path d="M31.6994 109.564C29.5782 109.851 27.4074 110.053 25.5171 109.578C26.1527 109.315 26.7883 109.052 27.428 108.788C27.0236 108.621 26.6192 108.454 26.2189 108.286C27.1724 108.099 28.1275 107.918 29.0822 107.752C27.9233 107.802 26.7894 107.747 25.7371 107.532C27.4223 106.661 29.2325 107.053 30.7156 107.434C30.4343 107.892 29.8299 108.371 29.9835 108.845C30.1098 109.416 31.0622 109.424 31.6994 109.564Z" fill="#B488F0"/>
<path d="M22.745 98.1051C22.5483 97.7687 22.3482 97.4363 22.1473 97.1011C22.858 96.77 23.5671 96.4334 24.2875 96.1057C24.4486 96.9723 24.022 97.8826 23.0077 98.5883C22.9443 98.4676 22.8125 98.2246 22.745 98.1051Z" fill="#7D8850"/>
<path d="M23.5668 99.8959C23.4074 99.5166 23.2556 99.1324 23.088 98.7554L23.0077 98.5883C24.022 97.8826 24.4487 96.9723 24.2875 96.1057C24.4899 96.0156 24.8896 95.8337 25.0919 95.7435C25.8131 95.4186 26.5414 95.1038 27.2697 94.789C28.1043 95.484 28.923 96.1864 29.7651 96.8764C29.4845 97.188 29.2039 97.4997 28.9225 97.8085C28.3496 97.2946 27.7843 96.7758 27.2197 96.2597C26.9855 96.927 26.7784 97.5959 26.6462 98.2628C26.4937 99.1356 26.3292 100.03 25.711 100.871C25.0016 100.544 24.2872 100.215 23.5668 99.8959Z" fill="#A071E8"/>
<path d="M23.1626 93.2829C22.5686 91.9279 21.2987 90.8347 20.9349 89.394C21.0855 88.9616 21.2624 88.5282 21.4713 88.0981C22.1722 88.4101 22.8689 88.7232 23.5814 89.029C23.6719 90.7255 24.4992 92.3382 23.7115 94.1384C23.6105 93.9769 23.3988 93.6506 23.2936 93.4902L23.1626 93.2829Z" fill="#774CBA"/>
<path d="M21.4713 88.0981C22.0974 87.7 22.7602 87.3398 23.4223 86.9768C23.5851 87.1038 23.9156 87.3594 24.0784 87.4863C23.9058 88.0024 23.7276 88.514 23.5814 89.029C22.8689 88.7232 22.1722 88.4101 21.4713 88.0981Z" fill="#A680DB"/>
<path d="M25.3798 101.077L25.7111 100.871C26.3292 100.03 26.4938 99.1356 26.6463 98.2628C27.7656 98.6781 28.9785 98.9785 30.2472 99.1892C29.9099 99.6207 29.5733 100.055 29.2401 100.485C30.1689 100.273 31.433 100.167 31.8331 99.3568C31.8024 98.3475 31.2219 97.4736 30.844 96.5604C31.5536 96.6067 32.3943 96.5789 32.8462 96.9726C32.9635 97.9077 32.795 98.8866 32.929 99.8173C31.7375 100.409 30.5303 100.975 29.3024 101.513C28.1995 101.375 27.0498 101.327 25.9375 101.203C25.8002 101.171 25.5213 101.108 25.3798 101.077Z" fill="#8A5EC5"/>
<path d="M24.6784 94.1007C24.437 94.1115 23.9536 94.1303 23.7115 94.1384C24.4992 92.3382 23.6718 90.7255 23.5814 89.029C23.7276 88.514 23.9058 88.0024 24.0784 87.4864C26.14 88.9988 25.1798 91.5304 24.7446 93.652C24.726 93.7648 24.697 93.988 24.6784 94.1007Z" fill="#4B3476"/>
<path d="M27.8281 102.525C27.3183 102.545 26.8093 102.567 26.301 102.593C26.6106 102.522 27.2354 102.384 27.5499 102.315C27.184 102.06 26.814 101.806 26.4432 101.549C26.318 101.463 26.0627 101.289 25.9375 101.203C27.0498 101.327 28.1995 101.375 29.3023 101.513L29.4198 101.703C28.8893 101.977 28.3587 102.251 27.8281 102.525Z" fill="#B5A6C3"/>
<path d="M25.092 95.7436C24.9972 95.4398 24.9067 95.1349 24.8244 94.8277C25.7162 94.6426 26.6122 94.4564 27.5081 94.2702C28.6204 94.858 29.739 95.453 31.0406 95.8524C31.7388 95.9556 32.4457 96.0415 33.1492 96.1313C33.8911 97.9555 34.6939 99.8411 36.6249 101.098C36.0661 101.383 35.5163 101.668 34.9617 101.951C34.9097 102.602 34.8626 103.255 34.8709 103.899C34.8084 103.683 34.6827 103.247 34.6202 103.03C33.7744 102.078 33.0202 101.053 32.9289 99.8173C32.795 98.8866 32.9635 97.9078 32.8461 96.9726C32.3943 96.579 31.5536 96.6067 30.844 96.5605C30.572 96.6393 30.033 96.7987 29.7652 96.8764C28.923 96.1864 28.1043 95.4841 27.2697 94.789C26.5414 95.1038 25.8131 95.4187 25.092 95.7436Z" fill="#7A4EC0"/>
<path d="M24.8243 94.8277C24.7889 94.6457 24.7139 94.2827 24.6784 94.1007C24.697 93.988 24.726 93.7647 24.7447 93.652C24.8625 93.8598 25.1009 94.2688 25.2221 94.4727C25.7037 93.3861 25.7042 92.0124 27.2987 91.2679L27.0698 91.5238C26.245 92.5557 27.0548 93.44 27.5081 94.2702C26.6122 94.4564 25.7162 94.6426 24.8243 94.8277Z" fill="#C8A2F7"/>
<path d="M33.0933 105.983C31.3778 106.574 29.7951 106.103 28.1722 106.062C29.1362 105.732 30.0743 105.355 30.9894 104.942L31.2543 104.821C32.471 104.671 33.6857 104.564 34.8898 104.484C35.1173 104.471 35.5672 104.443 35.7905 104.431C35.8431 104.279 35.9524 103.975 36.005 103.823C35.8969 104.298 35.8193 104.771 35.7375 105.244C34.8572 105.489 33.9792 105.742 33.0933 105.983Z" fill="#B4B7A9"/>
<path d="M26.6462 98.2627C26.7784 97.5959 26.9855 96.9269 27.2197 96.2597C27.7843 96.7758 28.3496 97.2946 28.9225 97.8084C29.2039 97.4996 29.4845 97.188 29.7651 96.8764C30.033 96.7987 30.572 96.6393 30.8439 96.5604C31.2219 97.4736 31.8024 98.3475 31.833 99.3568C31.4329 100.167 30.1689 100.273 29.2401 100.485C29.5733 100.055 29.9099 99.6207 30.2472 99.1892C28.9784 98.9785 27.7655 98.678 26.6462 98.2627Z" fill="#DDB8FD"/>
<path d="M31.6995 109.564C31.0623 109.424 30.1098 109.416 29.9836 108.845C29.83 108.371 30.4343 107.892 30.7156 107.434C30.967 107.51 31.4772 107.658 31.7286 107.734C32.6569 108.033 33.5621 108.362 34.5006 108.649C34.3099 108.766 33.9258 109.007 33.7351 109.124C33.6806 109.318 33.5673 109.707 33.5128 109.901C33.1278 109.807 32.736 109.72 32.3356 109.651C32.1748 109.631 31.8568 109.588 31.6995 109.564Z" fill="#9365EA"/>
<path d="M27.5081 94.2702C27.0548 93.44 26.245 92.5557 27.0697 91.5238C27.8535 91.7806 28.6516 92.0246 29.4848 92.2173C29.5538 91.729 29.6235 91.2435 29.6925 90.7552C31.2164 92.1334 30.3341 94.2102 31.0406 95.8523C29.739 95.453 28.6204 94.8579 27.5081 94.2702Z" fill="#A978F2"/>
<path d="M29.4199 101.703L29.3024 101.513C30.5303 100.975 31.7375 100.409 32.9289 99.8173C33.0202 101.053 33.7744 102.078 34.6202 103.03C33.3267 103.407 32.0138 103.893 31.2544 104.821L30.9895 104.943C30.4605 103.863 29.9805 102.768 29.4199 101.703Z" fill="#AD77F6"/>
<path d="M34.5005 108.649C33.5621 108.362 32.6568 108.033 31.7285 107.734C32.2248 107.299 32.7258 106.865 33.1856 106.41C34.1362 107.289 35.8083 107.431 37.4412 107.343C37.3945 107.12 37.2963 106.67 37.2455 106.447C37.8063 106.982 38.3279 107.537 38.8453 108.092C37.5378 108.102 36.0371 107.887 34.8964 108.767C34.7952 108.738 34.6017 108.679 34.5005 108.649Z" fill="#B98CF5"/>
<path d="M29.4848 92.2174C28.6516 92.0246 27.8535 91.7806 27.0698 91.5238L27.2987 91.2679C28.0879 91.0475 28.8945 90.9092 29.6925 90.7552C29.6236 91.2435 29.5538 91.729 29.4848 92.2174Z" fill="#572E85"/>
<path d="M34.8898 104.484C33.6857 104.564 32.471 104.671 31.2543 104.821C32.0138 103.893 33.3267 103.406 34.6202 103.03C34.6827 103.247 34.8084 103.683 34.8709 103.899C34.8744 104.045 34.8863 104.338 34.8898 104.484Z" fill="#CEB3EB"/>
<path d="M38.3555 115.313C36.4167 115.237 34.608 114.453 34.3879 113.019C35.3886 112.179 36.5671 111.423 37.2345 110.433C35.944 110.357 34.657 110.244 33.5127 109.901C33.5673 109.707 33.6805 109.318 33.7351 109.124C33.9258 109.007 34.3098 108.766 34.5005 108.649C34.6018 108.679 34.7952 108.738 34.8964 108.768C35.5451 108.968 36.1972 109.164 36.8621 109.342C38.1625 109.787 39.7389 109.753 41.293 109.537C41.9945 109.67 42.6659 109.855 43.2923 110.088C42.5495 110.763 41.5649 111.248 40.4899 111.545C39.7137 111.283 39.1351 110.119 38.058 110.772C37.9109 111.35 37.9789 111.919 38.2446 112.413C38.8372 113.266 39.0233 114.275 38.3555 115.313ZM36.3087 114.569C36.8332 114.305 37.357 114.039 37.8793 113.768C37.3694 113.174 36.563 112.717 35.3835 113.138C35.6775 113.622 35.9873 114.098 36.3087 114.569Z" fill="#5F4E7D"/>
<path d="M33.1856 106.41C33.1613 106.303 33.1176 106.09 33.0933 105.983C33.9792 105.742 34.8572 105.489 35.7375 105.244C36.2703 105.625 36.8039 106.009 37.2455 106.447C37.2963 106.67 37.3945 107.12 37.4412 107.343C35.8082 107.431 34.1362 107.289 33.1856 106.41Z" fill="#9464D9"/>
<path d="M36.3087 114.569C35.9873 114.098 35.6775 113.622 35.3835 113.138C36.563 112.717 37.3694 113.174 37.8793 113.768C37.357 114.039 36.8332 114.305 36.3087 114.569Z" fill="#D6BFFD"/>
<path d="M34.8964 108.767C36.0371 107.887 37.5378 108.102 38.8453 108.092C38.3279 107.537 37.8063 106.982 37.2455 106.447C36.8039 106.009 36.2703 105.625 35.7375 105.244C35.8193 104.771 35.8969 104.298 36.005 103.823C36.1034 103.527 36.2199 103.233 36.3537 102.937C37.0393 102.678 37.7265 102.425 38.4076 102.15C38.031 102.849 37.6823 103.553 37.3009 104.251C38.5771 105.136 39.8869 105.997 41.2589 106.808C41.2497 107.122 41.2488 107.433 41.2513 107.741C39.9177 108.233 38.589 108.727 37.2483 109.209L36.8621 109.342C36.1972 109.164 35.5451 108.968 34.8964 108.767Z" fill="#D6BBFD"/>
<path d="M34.8898 104.484C34.8863 104.338 34.8744 104.045 34.8709 103.899C34.8626 103.255 34.9097 102.602 34.9616 101.951C35.5163 101.668 36.0661 101.383 36.6249 101.098L37.0884 100.872C37.2459 101.228 37.3985 101.582 37.5436 101.941C37.1439 102.273 36.7428 102.599 36.3537 102.937C36.2199 103.233 36.1034 103.527 36.005 103.823C35.9524 103.975 35.8431 104.279 35.7905 104.431C35.5672 104.443 35.1173 104.471 34.8898 104.484Z" fill="#594963"/>
<path d="M42.4323 115.645C41.2343 115.218 39.7504 115.331 38.3555 115.313C39.0233 114.275 38.8372 113.266 38.2446 112.413C39.2079 113.125 40.5328 113.545 42.011 113.642C42.893 113.735 43.7802 113.815 44.6799 113.858C44.3666 114.81 43.8906 115.751 43.3212 116.676C44.4553 117.246 45.8965 117.47 47.4351 117.312C47.9641 117.281 48.495 117.241 49.0271 117.188C47.6981 117.598 46.4011 118.077 45.0924 118.529C45.0544 118.967 45.0122 119.407 44.9734 119.842C44.7949 119.872 44.4364 119.926 44.2571 119.953C43.4445 119.821 42.7007 119.58 42.0005 119.304C42.6127 119.302 43.2252 119.284 43.8419 119.265C43.972 118.707 44.1153 118.148 44.2627 117.588C42.9837 117.67 41.7073 117.713 40.4325 117.761C41.0816 117.051 41.7545 116.347 42.4323 115.645Z" fill="#9979D1"/>
<path d="M36.6249 101.098C34.6938 99.8411 33.891 97.9554 33.1491 96.1313C33.3368 96.0361 33.7128 95.8485 33.8971 95.7573C34.4628 96.294 35.0628 96.8095 35.59 97.3685C35.9402 98.6094 36.1835 99.8818 36.6249 101.098Z" fill="#AD7DF1"/>
<path d="M38.2446 112.413C37.9789 111.919 37.911 111.35 38.058 110.772C39.1352 110.119 39.7137 111.283 40.4899 111.545C42.117 111.833 43.8752 111.982 45.6855 111.694C45.3312 111.035 44.4965 110.654 43.7242 110.274C43.6584 109.598 43.5974 108.923 43.4521 108.265C44.0129 107.722 44.5533 107.17 45.0204 106.593C45.0033 106.712 44.9716 106.942 44.9579 107.056C45.7351 107.372 46.5505 107.647 47.3659 107.922C46.3309 108.17 45.3101 108.47 44.2927 108.767C44.6689 109.342 45.041 109.919 45.4832 110.458C45.8448 110.781 46.2087 111.111 46.6996 111.336C48.2141 111.403 49.7973 110.898 51.3315 110.657C50.1928 111.031 49.0818 111.475 47.9828 111.931C47.7983 112.37 47.636 112.808 47.482 113.245L47.4071 113.462C47.3294 113.106 47.2103 112.761 47.0588 112.427C46.0005 112.223 44.7859 112.231 43.6165 112.491C42.9515 112.744 42.5346 113.26 42.011 113.642C40.5328 113.545 39.2079 113.125 38.2446 112.413Z" fill="#C29EF6"/>
<path d="M41.293 109.537C39.7388 109.753 38.1625 109.787 36.8621 109.342L37.2482 109.209C38.7215 108.94 40.0345 109.249 41.293 109.537Z" fill="#A3A084"/>
<path d="M41.293 109.537C40.0346 109.249 38.7216 108.94 37.2483 109.209C38.589 108.727 39.9177 108.233 41.2513 107.741C41.2489 107.433 41.2498 107.122 41.259 106.808C41.565 106.194 41.944 105.586 42.3189 104.98C42.396 105.052 42.5493 105.194 42.6256 105.263C42.8321 106.282 43.0468 107.299 43.4521 108.265C43.5974 108.923 43.6584 109.598 43.7242 110.274C43.6185 110.228 43.4022 110.133 43.2923 110.088C42.6659 109.855 41.9946 109.67 41.293 109.537Z" fill="#CDD7AE"/>
<path d="M35.59 97.3685C35.0628 96.8095 34.4628 96.294 33.8971 95.7573C34.4656 95.5421 35.2007 95.004 35.7555 95.3012C36.3736 95.5366 36.7739 95.953 37.2401 96.3009C37.1592 96.7116 37.0817 97.1185 37.0042 97.5253C36.5333 97.4749 36.0617 97.4217 35.59 97.3685Z" fill="#543485"/>
<path d="M36.3536 102.936C36.7428 102.599 37.1439 102.273 37.5435 101.941C37.3985 101.582 37.2458 101.228 37.0883 100.872C37.8016 100.535 38.5887 100.389 39.3663 100.325C39.3568 100.588 39.337 101.111 39.3275 101.374C39.15 101.523 38.7948 101.822 38.6172 101.971L38.4076 102.15C37.7264 102.425 37.0393 102.678 36.3536 102.936Z" fill="#7D8850"/>
<path d="M42.0004 119.304C41.187 118.986 40.8893 118.306 40.4324 117.761C41.7073 117.713 42.9836 117.67 44.2627 117.588C44.1153 118.148 43.972 118.707 43.8419 119.265C43.2252 119.284 42.6126 119.302 42.0004 119.304Z" fill="#4F3979"/>
<path d="M41.259 106.808C39.8869 105.997 38.5771 105.136 37.3009 104.251C37.6823 103.553 38.0311 102.849 38.4076 102.15L38.6173 101.971C39.7887 102.929 40.9677 103.882 42.1467 104.835L42.3189 104.98C41.944 105.586 41.565 106.194 41.259 106.808Z" fill="#9A61E7"/>
<path d="M36.6249 101.098C36.1835 99.8819 35.9402 98.6094 35.59 97.3686C36.0616 97.4217 36.5333 97.4749 37.0041 97.5253C37.0816 97.1185 37.1592 96.7117 37.2401 96.301C37.7442 96.7075 38.3366 97.0456 38.9678 97.3463C39.2922 98.3247 39.6206 99.302 40.1043 100.229C39.9194 100.251 39.5504 100.299 39.3662 100.325C38.5887 100.39 37.8016 100.535 37.0883 100.872L36.6249 101.098Z" fill="#915DD8"/>
<path d="M45.6855 111.694C43.8752 111.982 42.1169 111.833 40.4899 111.545C41.5649 111.248 42.5495 110.763 43.2923 110.088C43.4022 110.133 43.6185 110.228 43.7242 110.274C44.4965 110.654 45.3312 111.035 45.6855 111.694Z" fill="#8B65C8"/>
<path d="M42.1467 104.835C40.9677 103.882 39.7887 102.929 38.6173 101.971C38.7948 101.822 39.15 101.523 39.3276 101.374C39.8577 101.794 40.3686 102.226 40.9021 102.643C41.6557 103.383 42.9043 103.701 44.2513 103.756C43.9495 104.055 43.6569 104.355 43.374 104.659C43.066 104.702 42.4548 104.791 42.1467 104.835Z" fill="#624793"/>
<path d="M44.7706 113.834C43.84 113.799 42.9227 113.727 42.011 113.642C42.5563 113.254 42.9925 112.733 43.6829 112.473C44.8954 112.202 46.1523 112.183 47.2455 112.377C47.3992 112.71 47.5192 113.055 47.5963 113.412L47.5149 113.658C46.597 113.739 45.6749 113.822 44.7706 113.834Z" fill="#E2CFFC"/>
<path d="M50.2647 119.023C48.3869 119.87 46.132 120.355 44.2571 119.953C44.4364 119.926 44.7949 119.872 44.9734 119.842C46.3179 119.557 47.7831 119.373 48.9849 118.704C49.2847 118.166 49.4641 117.609 49.6673 117.058C49.5076 117.092 49.1875 117.157 49.027 117.188C48.495 117.241 47.9641 117.281 47.435 117.312C48.0866 116.728 48.7638 116.139 49.5876 115.667C49.7657 115.652 50.1253 115.619 50.3076 115.603C50.5396 116.154 50.722 116.719 50.8912 117.284C52.1054 117.258 53.3406 117.094 54.5627 116.833L54.5844 117.129C52.9676 117.443 51.689 118.372 50.2647 119.023Z" fill="#C9B5E4"/>
<path d="M47.435 117.312C45.8964 117.47 44.4553 117.246 43.3212 116.676C43.8905 115.751 44.3665 114.81 44.6799 113.858C45.5537 113.854 46.4442 113.78 47.3306 113.707C47.0718 114.432 46.7859 115.155 46.5098 115.881C47.5351 115.813 48.5578 115.751 49.5876 115.667C48.7638 116.139 48.0866 116.728 47.435 117.312Z" fill="#BC92F1"/>
<path d="M39.3276 101.374C39.3371 101.111 39.3568 100.588 39.3663 100.325C39.5504 100.299 39.9195 100.251 40.1044 100.229C40.4218 100.85 40.7758 101.458 41.1214 102.069C41.6551 101.956 42.1888 101.843 42.721 101.724C42.1083 102.023 41.5035 102.335 40.9021 102.643C40.3686 102.226 39.8577 101.794 39.3276 101.374Z" fill="#AB91D6"/>
<path d="M40.1044 100.229C39.6207 99.3021 39.2922 98.3247 38.9679 97.3463C39.8812 97.1584 40.8111 96.9003 41.7256 96.8827C42.9637 97.4098 43.6251 98.3697 44.3016 99.2538C43.8478 99.118 43.3981 98.9812 42.9436 98.8426C42.3072 99.7493 42.0714 100.725 43.1502 101.271C43.2397 101.34 43.4201 101.483 43.5096 101.552C43.3127 101.596 42.9187 101.683 42.721 101.724C42.1888 101.843 41.6551 101.956 41.1215 102.069C40.7758 101.458 40.4218 100.85 40.1044 100.229ZM40.9729 98.9457C41.4241 98.6243 41.8753 98.3029 42.3257 97.9787C41.4845 97.839 40.6439 97.37 39.6618 97.7319C39.5692 98.3971 40.4098 98.6178 40.9729 98.9457Z" fill="#E4C4FB"/>
<path d="M48.9849 118.704C47.7831 119.373 46.3179 119.557 44.9734 119.842C45.0121 119.407 45.0543 118.967 45.0923 118.529C46.401 118.077 47.6981 117.598 49.027 117.188C49.1875 117.157 49.5076 117.092 49.6673 117.058C49.4642 117.609 49.2847 118.166 48.9849 118.704Z" fill="#BE94EE"/>
<path d="M44.2512 103.756C42.9043 103.701 41.6557 103.383 40.9021 102.642C41.5035 102.335 42.1083 102.023 42.721 101.724C42.9187 101.683 43.3126 101.596 43.5096 101.552C43.6255 101.587 43.8532 101.657 43.9698 101.695C44.0484 102.386 44.1188 103.079 44.2512 103.756Z" fill="#836DA3"/>
<path d="M40.9729 98.9457C40.4099 98.6178 39.5692 98.3971 39.6618 97.7319C40.6439 97.37 41.4846 97.839 42.3258 97.9787C41.8753 98.3029 41.4241 98.6243 40.9729 98.9457Z" fill="#9D7DD0"/>
<path d="M43.452 108.265C43.0467 107.299 42.832 106.282 42.6256 105.263C42.5493 105.194 42.3959 105.052 42.3189 104.98L42.1467 104.835C42.4547 104.791 43.0659 104.702 43.3739 104.659L43.3863 104.904C43.4414 105.275 43.4999 105.642 43.5632 106.011C43.9181 106.093 44.2764 106.17 44.6373 106.241C44.7676 106.263 45.0306 106.3 45.1601 106.32L45.0204 106.593C44.5533 107.17 44.0128 107.722 43.452 108.265Z" fill="#9D957F"/>
<path d="M46.5099 115.881C46.786 115.155 47.0719 114.432 47.3306 113.707L47.4071 113.462L47.482 113.245C47.9466 113.47 48.4145 113.692 48.9002 113.897C49.6783 113.719 50.4595 113.518 51.2261 113.28C51.2831 113.178 51.3896 112.979 51.4474 112.879C51.5399 112.711 51.7257 112.377 51.8183 112.208C52.5676 112.37 53.3217 112.533 54.0454 112.731C54.1964 112.897 54.4986 113.229 54.6455 113.396C54.4635 113.463 54.1003 113.599 53.9142 113.667C52.9674 113.879 52.0157 114.056 51.0655 114.239C50.9484 114.68 50.8306 115.119 50.7128 115.557L50.3076 115.603C50.1253 115.619 49.7657 115.652 49.5876 115.667C48.5578 115.751 47.5352 115.813 46.5099 115.881Z" fill="#9F6DDE"/>
<path d="M45.4832 110.459C45.041 109.919 44.6689 109.342 44.2927 108.767C45.3101 108.47 46.3308 108.17 47.3658 107.922C47.5265 107.975 47.8486 108.083 48.0051 108.137C47.3952 109.01 46.4482 109.751 45.4832 110.459Z" fill="#9E71E0"/>
<path d="M44.6373 106.241C44.2764 106.17 43.9181 106.093 43.5633 106.011C43.4999 105.642 43.4414 105.275 43.3863 104.904C43.6127 104.837 44.0662 104.706 44.2885 104.641C44.405 105.175 44.5174 105.711 44.6373 106.241Z" fill="#CABBDB"/>
<path d="M43.3863 104.904L43.374 104.658C43.6568 104.355 43.9495 104.055 44.2512 103.756C44.756 104.231 45.3019 104.678 45.8252 105.139C46.0802 105.047 46.3394 104.953 46.5937 104.858C46.7263 105.221 46.859 105.583 46.975 105.95C46.8175 106.025 46.5018 106.173 46.3443 106.248C46.0476 106.267 45.4576 106.303 45.1601 106.32C45.0307 106.3 44.7676 106.263 44.6373 106.241C44.5174 105.711 44.405 105.175 44.2885 104.641C44.0662 104.706 43.6127 104.837 43.3863 104.904Z" fill="#7D59AF"/>
<path d="M43.1502 101.271C42.0714 100.725 42.3072 99.7492 42.9435 98.8426C43.3981 98.9811 43.8478 99.118 44.3016 99.2537C44.0699 99.9472 43.6234 100.618 43.1502 101.271Z" fill="#8E71C6"/>
<path d="M46.6996 111.336C46.2086 111.111 45.8448 110.781 45.4832 110.459C46.4482 109.751 47.3952 109.01 48.0051 108.137C47.8486 108.083 47.5265 107.975 47.3658 107.922C46.5505 107.647 45.7351 107.372 44.9578 107.056C44.9716 106.942 45.0032 106.712 45.0204 106.593L45.1601 106.32C45.4576 106.303 46.0476 106.267 46.3443 106.248C47.7792 106.399 48.9767 106.907 50.0943 107.448C50.1743 107.532 50.3303 107.699 50.4103 107.783C50.8307 108.705 51.0802 109.686 51.3315 110.657C49.7973 110.898 48.214 111.403 46.6996 111.336Z" fill="#DDC3FA"/>
<path d="M44.2513 103.756C44.1188 103.079 44.0484 102.386 43.9698 101.695C44.1305 101.748 44.456 101.852 44.6166 101.905C45.9247 102.461 46.7243 103.39 47.3705 104.36C47.6328 104.858 48.3995 104.985 49.0388 105.167C49.1178 104.55 49.1829 103.931 49.2529 103.314C49.9349 103.837 50.7353 104.272 51.5527 104.688C51.2864 105.633 50.7483 106.558 50.0943 107.448C48.9767 106.907 47.7792 106.399 46.3443 106.248C46.5018 106.173 46.8176 106.025 46.9751 105.95C46.859 105.583 46.7264 105.221 46.5937 104.858C46.3394 104.953 46.0802 105.047 45.8252 105.139C45.3019 104.678 44.7561 104.231 44.2513 103.756Z" fill="#B68EF3"/>
<path d="M47.3705 104.36C46.7243 103.39 45.9247 102.461 44.6166 101.905C45.1709 101.636 45.7308 101.373 46.2915 101.112C46.6642 101.326 47.032 101.539 47.4006 101.754C48.0571 102.249 48.6231 102.803 49.2528 103.314C49.1829 103.931 49.1178 104.55 49.0388 105.167C48.3995 104.985 47.6328 104.858 47.3705 104.36Z" fill="#835DAF"/>
<path d="M47.9827 111.931C49.0817 111.475 50.1927 111.031 51.3315 110.657C51.6953 110.557 52.0599 110.459 52.4253 110.364C52.8734 110.561 53.3248 110.754 53.7728 110.952C53.84 111.55 53.9154 112.146 54.0454 112.731C53.3217 112.533 52.5675 112.37 51.8182 112.208C51.7257 112.377 51.5399 112.711 51.4474 112.879C51.1263 112.394 50.7695 111.924 50.4202 111.449C49.7321 111.582 49.0425 111.71 48.356 111.849L47.9827 111.931Z" fill="#7F6D9E"/>
<path d="M47.861 114.168C47.5493 113.305 47.3194 112.417 47.1582 111.514C48.3989 111.24 49.6435 110.98 50.8861 110.713C51.4464 111.3 52.0207 111.878 52.5293 112.483C52.4135 112.622 52.198 112.901 52.0831 113.044C50.6871 113.461 49.2699 113.829 47.861 114.168Z" fill="#533B65"/>
<path d="M50.8912 117.284C50.722 116.719 50.5396 116.154 50.3075 115.603L50.7127 115.557C52.0111 115.182 53.0198 114.439 53.9142 113.667C54.1003 113.599 54.4635 113.463 54.6454 113.396C54.9818 113.276 55.3182 113.156 55.6546 113.036C55.532 112.578 55.4044 112.118 55.3231 111.649C55.4397 111.256 55.5793 110.866 55.7189 110.475C56.139 110.766 56.507 111.096 56.8249 111.453C57.5252 112.708 58.8051 113.673 60.1144 114.582C61.0114 114.913 62.0072 115.116 62.9827 115.343C66.3255 116.201 69.6453 117.089 73.0685 117.832C76.393 118.39 79.6416 119.079 82.9918 119.599C86.6319 120.075 90.2513 120.59 93.9236 121.003C95.944 121.285 98.0192 121.489 100.189 121.383C98.1303 120.412 95.6089 120.001 93.0803 119.679C88.2282 118.558 83.1082 117.829 78.5271 116.328C81.4506 116.715 84.3535 117.223 87.53 116.947C90.4859 117.107 93.3854 117.404 96.2335 117.808C96.1987 117.694 96.1291 117.468 96.0935 117.352C98.201 117.858 100.102 118.705 101.338 119.986C102.135 120.706 102.709 121.771 104.286 121.773C110.048 122.097 115.925 122.087 121.794 122.064C121.818 122.24 121.867 122.586 121.892 122.762C118.709 123.166 115.645 122.934 112.53 122.993C107.841 123.077 103.351 122.577 98.7272 122.457C96.6784 122.037 94.483 121.898 92.3185 121.709C82.3212 120.494 72.399 118.996 63.3138 116.313C62.4504 116.174 61.4493 115.52 60.5047 116.204C59.9374 116.126 59.3608 116.062 58.7841 115.998C58.5999 115.625 58.424 115.25 58.2157 114.887C56.0588 114.876 53.436 114.998 51.6608 116.377C51.3994 116.678 51.1428 116.98 50.8912 117.284Z" fill="#B8C979"/>
<path d="M54.5627 116.833C53.3406 117.094 52.1054 117.258 50.8912 117.284C51.1429 116.98 51.3994 116.678 51.6608 116.377C52.6097 116.306 53.5589 116.219 54.5113 116.11C54.5245 116.292 54.5502 116.654 54.5627 116.833Z" fill="#8B8F7B"/>
<path d="M50.7128 115.557C50.8306 115.119 50.9485 114.68 51.0656 114.239C52.0158 114.056 52.9674 113.879 53.9143 113.667C53.0199 114.439 52.0112 115.182 50.7128 115.557Z" fill="#CFC2D3"/>
<path d="M49.2529 103.314C48.6231 102.803 48.0571 102.249 47.4006 101.754C48.5059 102.481 49.9877 102.94 51.7386 102.564L51.513 102.6C51.3725 102.623 51.0957 102.667 50.9594 102.689C51.2536 103.041 51.5553 103.388 51.857 103.735C51.7563 104.055 51.6549 104.373 51.5527 104.688C50.7353 104.272 49.9349 103.837 49.2529 103.314Z" fill="#E6CAFF"/>
<path d="M54.5113 116.11C53.559 116.219 52.6097 116.306 51.6608 116.377C53.4361 114.998 56.0589 114.876 58.2157 114.887C56.9599 115.239 55.7067 115.617 54.5113 116.11Z" fill="#879650"/>
<path d="M50.0943 107.448C50.7483 106.558 51.2864 105.633 51.5527 104.688C51.6549 104.373 51.7563 104.055 51.857 103.735C51.5553 103.388 51.2536 103.041 50.9594 102.689C51.0958 102.667 51.3726 102.623 51.513 102.6C52.7201 102.995 53.4065 103.817 53.3776 104.836C53.5288 105.367 53.358 106.188 54.299 106.286C54.8166 106.345 55.6078 106.629 56.0529 106.169C56.6045 105.692 57.0252 105.157 57.4956 104.642C58.3855 105.544 57.424 106.861 58.0066 107.842C58.9177 108.69 59.6245 109.704 59.1047 110.962C58.0998 110.328 57.2834 109.568 56.4753 108.806C55.4586 107.813 53.749 107.382 52.207 106.864C51.8584 107.751 51.6355 108.642 51.5782 109.523C51.2555 108.915 50.8955 108.317 50.4104 107.783C50.3303 107.699 50.1744 107.532 50.0943 107.448Z" fill="#7A50BA"/>
<path d="M51.3315 110.657C51.0802 109.686 50.8308 108.705 50.4103 107.783C50.8954 108.317 51.2555 108.915 51.5782 109.523C51.6354 108.642 51.8583 107.751 52.207 106.864C53.7489 107.382 55.4585 107.812 56.4752 108.806C57.2833 109.568 58.0998 110.328 59.1046 110.962C59.2716 111.088 59.6054 111.34 59.7758 111.462C60.0556 111.827 60.3072 112.202 60.5863 112.564C59.4473 111.81 58.2528 111.098 57.0986 110.354C57.0016 110.721 56.9005 111.089 56.8249 111.453C56.507 111.096 56.139 110.766 55.719 110.475C54.5767 109.841 53.3089 109.319 51.9916 108.861C52.1353 109.364 52.2782 109.865 52.4253 110.364C52.06 110.459 51.6954 110.557 51.3315 110.657Z" fill="#B189EF"/>
<path d="M53.7728 110.952C53.3248 110.754 52.8733 110.561 52.4253 110.364C52.2782 109.865 52.1352 109.364 51.9915 108.861C53.3088 109.319 54.5767 109.841 55.7189 110.475C55.5793 110.865 55.4397 111.256 55.3231 111.649C54.8077 111.416 54.2916 111.181 53.7728 110.952Z" fill="#CCABFB"/>
<path d="M54.5844 117.129L54.5627 116.833C54.5502 116.653 54.5245 116.292 54.5113 116.11C55.7067 115.616 56.9599 115.239 58.2157 114.887C58.424 115.25 58.5999 115.625 58.7841 115.998C57.5385 116.801 56.0356 116.977 54.5844 117.129Z" fill="#4A5133"/>
<path d="M59.7383 134.242C58.954 131.846 61.6869 129.019 64.9893 127.787C68.1015 126.624 71.3872 125.893 74.605 125.025C77.5915 124.221 80.6474 123.81 83.655 123.632C79.9512 124.675 76.1445 125.417 72.5553 126.789C69.2198 128.03 66.2144 129.757 63.2169 131.431C62.005 132.079 61.0469 132.928 60.2928 133.842C61.182 133.631 62.0739 133.413 62.9482 133.146C61.92 133.601 60.8246 133.921 59.7383 134.242Z" fill="#B9CA75"/>
<path d="M54.6455 113.396C54.4986 113.229 54.1964 112.897 54.0454 112.731C53.9154 112.146 53.84 111.55 53.7729 110.952C54.2916 111.181 54.8078 111.416 55.3231 111.649C55.4044 112.118 55.532 112.578 55.6547 113.036C55.3183 113.156 54.9819 113.276 54.6455 113.396Z" fill="#503772"/>
<path d="M60.2927 133.842C61.0469 132.928 62.005 132.079 63.2169 131.431C66.2144 129.757 69.2198 128.03 72.5553 126.789C76.1445 125.417 79.9512 124.675 83.655 123.632C85.423 123.419 87.1821 123.321 88.9218 123.301C85.9576 124.071 82.928 124.482 79.9788 125.308C77.1764 126.086 74.3671 126.905 71.711 128.03C75.6683 127.535 79.491 126.074 83.4418 125.455C83.3306 125.703 83.2195 125.951 83.1084 126.2C85.7198 125.488 88.3755 125.058 91.0252 124.638C86.3976 125.83 81.7249 126.804 77.0538 127.75C73.7673 128.511 70.3934 129.062 67.2326 130.259C65.4436 130.891 64.3951 132.198 62.9482 133.146C62.0739 133.413 61.182 133.631 60.2927 133.842Z" fill="#74814E"/>
<path d="M54.2989 106.286C53.3579 106.188 53.5287 105.367 53.3776 104.836C55.5474 103.901 57.9807 103.387 60.1432 103.834C60.6192 104.865 60.9124 105.959 60.7561 107.132C60.1281 107.142 59.5035 107.148 58.8747 107.154C58.6587 107.326 58.2267 107.669 58.0065 107.842C57.4239 106.861 58.3855 105.544 57.4955 104.642C57.0251 105.157 56.6044 105.692 56.0528 106.169C55.6078 106.629 54.8165 106.345 54.2989 106.286Z" fill="#AC87E1"/>
<path d="M60.1145 114.582C58.8051 113.673 57.5252 112.708 56.8249 111.453C56.9004 111.089 57.0016 110.721 57.0986 110.354C58.2527 111.098 59.4472 111.81 60.5863 112.564L60.7652 112.735C60.5529 113.351 60.3399 113.965 60.1145 114.582Z" fill="#6D774F"/>
<path d="M59.1046 110.962C59.6244 109.704 58.9176 108.69 58.0065 107.842C58.2267 107.669 58.6587 107.326 58.8747 107.154C59.5035 107.148 60.1281 107.142 60.7561 107.132C60.8508 108.546 60.8102 110.035 59.7758 111.462C59.6054 111.34 59.2715 111.088 59.1046 110.962Z" fill="#583A7E"/>
<path d="M60.5047 116.204C61.4494 115.52 62.4504 116.174 63.3138 116.313C72.399 118.996 82.3213 120.494 92.3186 121.709C94.483 121.898 96.6784 122.037 98.7273 122.457C97.6799 122.675 96.6208 122.932 95.5718 122.962C94.263 122.22 92.3171 122.35 90.6625 122.108C80.1765 120.892 70.0521 118.922 60.5047 116.204Z" fill="#7D8850"/>
<path d="M143.586 122.07C143.678 121.602 143.774 121.133 143.867 120.666C144.569 121.298 145.883 121.08 147.002 120.948C154.291 119.928 161.596 118.836 168.855 117.304C176.172 115.541 183.58 114.053 190.731 111.657C200.835 108.78 210.669 105.106 220.192 101.004C232.473 95.8104 244.093 89.6085 254.981 82.8098C258.014 80.9857 260.672 78.825 263.894 77.1776C263.232 78.1211 262.239 78.9379 261.185 79.696C254.052 84.3814 246.706 88.9174 238.896 92.9671C230.129 97.6356 220.896 101.758 211.461 105.495C205.086 107.937 198.564 110.079 192.023 112.137C186.692 113.685 181.321 115.104 175.944 116.464C169.881 117.768 163.818 119.138 157.718 120.12C153.213 120.828 148.712 121.363 144.208 121.975C144.055 121.998 143.743 122.045 143.586 122.07Z" fill="#7D8850"/>
<path d="M62.9827 115.343C62.0073 115.116 61.0115 114.913 60.1145 114.582C60.3399 113.965 60.553 113.351 60.7652 112.735C61.6516 113.524 62.42 114.386 62.9827 115.343Z" fill="#7D8850"/>
<path d="M83.4418 125.455C79.491 126.074 75.6683 127.535 71.711 128.03C74.3672 126.905 77.1764 126.086 79.9788 125.308C82.9281 124.482 85.9576 124.072 88.9219 123.301C91.1532 123.11 93.3671 123.02 95.5719 122.962C96.6208 122.932 97.6799 122.675 98.7273 122.457C103.351 122.577 107.841 123.077 112.531 122.993C115.645 122.934 118.709 123.166 121.892 122.762C121.914 122.879 121.96 123.118 121.983 123.235L122.097 123.444C116.131 123.489 110.152 123.529 104.31 123.173C100.029 122.743 95.4466 123.986 91.0252 124.638C88.3756 125.058 85.7198 125.488 83.1085 126.2C83.2196 125.951 83.3307 125.703 83.4418 125.455Z" fill="#4D562F"/>
<path d="M78.5272 116.328C76.5851 115.759 74.3072 115.229 73.4426 113.776C72.9502 113.115 73.5205 112.31 74.0149 111.603C74.3478 111.768 74.6758 111.931 75.008 112.094C75.2522 113.453 76.586 114.37 78.1297 114.977C80.8589 116.197 84.363 116.347 87.5301 116.947C84.3536 117.223 81.4506 116.715 78.5272 116.328Z" fill="#737D50"/>
<path d="M78.1297 114.977C76.586 114.37 75.2522 113.453 75.008 112.094C80.8348 115.377 89.3915 115.143 96.0936 117.352C96.1292 117.468 96.1988 117.694 96.2336 117.808C93.3855 117.404 90.4859 117.107 87.5301 116.947C84.363 116.347 80.859 116.197 78.1297 114.977Z" fill="#4B522C"/>
<path d="M95.0237 120.568C94.3793 120.268 93.7458 119.959 93.0803 119.679C95.609 120.001 98.1303 120.412 100.189 121.383C98.0193 121.489 95.9441 121.285 93.9236 121.003C94.1964 120.894 94.7509 120.677 95.0237 120.568Z" fill="#7D8850"/>
<path d="M122.097 123.444L121.983 123.235C124.33 122.45 126.781 122.084 129.174 122.032C129.133 122.393 129.092 122.751 129.055 123.111C128.533 123.152 128.013 123.199 127.489 123.25C125.674 123.422 123.876 123.455 122.097 123.444Z" fill="#9AA46B"/>
<path d="M121.983 123.235C121.96 123.118 121.914 122.879 121.892 122.762C121.867 122.586 121.818 122.24 121.794 122.064C123.948 121.885 126.113 121.661 128.235 121.676C129.692 121.693 131.198 121.579 132.681 121.182L132.799 121.408C132.843 121.489 132.927 121.652 132.971 121.733C132.421 122.036 131.871 122.336 131.326 122.637C131.431 122.75 131.646 122.971 131.752 123.083C130.853 123.078 129.962 123.066 129.055 123.111C129.092 122.751 129.133 122.393 129.174 122.032C126.781 122.084 124.33 122.45 121.983 123.235Z" fill="#CBD2A3"/>
<path d="M125.757 126.314C125.319 126.022 125.696 125.525 125.843 125.127C127.226 125.005 128.617 124.874 130.003 124.743C129.46 125.088 128.917 125.431 128.375 125.777C129.33 125.827 130.287 125.869 131.245 125.915L131.17 126.148C129.408 127.033 127.201 126.999 125.757 126.314Z" fill="#9668DD"/>
<path d="M125.843 125.127C126.14 124.76 126.455 124.397 126.776 124.036C128.504 123.624 130.243 123.535 131.884 123.691C131.647 124.431 131.446 125.173 131.245 125.915C130.287 125.869 129.33 125.827 128.375 125.777C128.917 125.431 129.46 125.088 130.003 124.743C128.617 124.874 127.226 125.005 125.843 125.127Z" fill="#BB98E8"/>
<path d="M126.776 124.036C127.012 123.775 127.248 123.512 127.489 123.25C128.013 123.199 128.533 123.152 129.055 123.111C129.962 123.066 130.853 123.078 131.752 123.083C132.406 123.087 133.058 123.101 133.716 123.104C133.917 123.44 134.128 123.766 134.353 124.089C134.094 124.565 133.825 125.038 133.561 125.51C132.732 125.448 131.931 125.842 131.17 126.148L131.245 125.915C131.446 125.173 131.647 124.431 131.884 123.691C130.243 123.535 128.504 123.624 126.776 124.036Z" fill="#DBC5F9"/>
<path d="M128.244 120.151C127.386 119.369 127.912 118.166 128.037 117.157C129.116 116.859 130.41 116.102 131.426 116.515C132.287 116.993 132.752 117.734 133.404 118.346C132.43 117.99 131.461 117.625 130.447 117.319C130.729 117.824 131.023 118.326 131.321 118.823C131.03 118.931 130.735 119.04 130.443 119.145C130.66 119.638 130.872 120.132 131.08 120.626C130.1 120.563 128.812 120.779 128.244 120.151Z" fill="#D4BEF2"/>
<path d="M134.782 129.172C133.636 128.988 132.295 128.59 132.459 127.562C133.787 127.415 135.321 127.073 136.399 127.583C136.74 128.142 135.601 128.614 135.135 129.065L134.782 129.172Z" fill="#DBC3FB"/>
<path d="M132.459 127.562C132.794 126.874 133.194 126.195 133.561 125.51C133.825 125.038 134.094 124.565 134.353 124.089C135.252 123.551 136.139 123 137.08 122.499C137.609 122.288 138.152 122.092 138.693 121.893C138.71 121.691 138.741 121.291 138.758 121.089C138.872 121.25 139.106 121.576 139.224 121.736L139.37 121.933C138.483 122.336 137.485 122.669 136.776 123.254C136.523 123.771 136.56 124.29 136.498 124.804C138.01 124.611 139.528 124.261 140.958 123.698C141.123 123.636 141.449 123.51 141.614 123.445C142.301 123.009 142.949 122.543 143.586 122.07C143.743 122.045 144.055 121.998 144.208 121.975C144.986 123.137 146.18 124.277 145.476 125.81C145.23 125.854 144.734 125.94 144.484 125.986C144.477 125.595 144.469 125.202 144.458 124.811C143.364 125.086 142.291 125.442 141.267 125.881C140.936 125.82 140.601 125.763 140.27 125.705C139.126 127.188 137.47 128.613 135.135 129.065C135.601 128.614 136.74 128.142 136.399 127.583C135.321 127.073 133.787 127.415 132.459 127.562Z" fill="#8859C8"/>
<path d="M131.752 123.083C131.646 122.971 131.432 122.75 131.326 122.637C131.871 122.336 132.421 122.036 132.971 121.733C133.218 122.19 133.457 122.653 133.716 123.104C133.058 123.101 132.406 123.087 131.752 123.083Z" fill="#857E7B"/>
<path d="M131.08 120.626C130.872 120.132 130.66 119.638 130.443 119.145C130.735 119.04 131.03 118.931 131.321 118.823C131.023 118.325 130.729 117.824 130.447 117.319C131.461 117.624 132.43 117.99 133.404 118.346C133.782 118.544 134.3 118.507 134.795 118.464C134.993 118.408 135.393 118.295 135.592 118.239C135.495 117.828 135.359 117.421 135.334 116.994C136.227 116.219 137.636 116.158 138.8 116.041C139.285 116.244 139.776 116.438 140.254 116.645C140.757 117.312 141.22 117.999 141.758 118.648C140.848 119.511 139.82 120.314 138.758 121.089C138.202 121.22 137.652 121.352 137.096 121.483C137.22 121.232 137.339 120.981 137.462 120.73C136.706 120.127 136.209 119.384 135.738 118.636L135.552 118.572C135.386 118.599 135.054 118.652 134.888 118.678C133.947 118.829 133.011 118.966 132.077 119.109C132.207 119.711 132.342 120.315 132.535 120.901C132.061 120.791 131.578 120.694 131.08 120.626Z" fill="#A47FEF"/>
<path d="M132.971 121.733C132.927 121.652 132.843 121.489 132.799 121.408C133.681 120.555 134.338 119.625 134.888 118.679C135.054 118.652 135.386 118.599 135.552 118.572C135.454 119.368 135.322 120.166 135.172 120.964C135.81 121.472 136.448 121.983 137.08 122.499C136.139 123 135.252 123.552 134.353 124.089C134.128 123.766 133.917 123.44 133.716 123.104C133.457 122.653 133.218 122.19 132.971 121.733Z" fill="#523381"/>
<path d="M132.799 121.408L132.681 121.182L132.535 120.901C132.342 120.315 132.207 119.711 132.077 119.109C133.011 118.966 133.947 118.829 134.888 118.679C134.338 119.625 133.681 120.555 132.799 121.408Z" fill="#7551A9"/>
<path d="M137.08 122.499C136.448 121.983 135.81 121.472 135.172 120.964C135.322 120.166 135.454 119.368 135.552 118.572L135.738 118.636C136.209 119.384 136.706 120.128 137.463 120.73C137.339 120.981 137.22 121.232 137.096 121.483C137.652 121.352 138.202 121.22 138.758 121.089C138.741 121.291 138.71 121.691 138.694 121.893C138.152 122.092 137.609 122.289 137.08 122.499Z" fill="#734AAF"/>
<path d="M134.795 118.464C134.555 117.553 134.485 116.596 134.602 115.622C135.368 115.366 136.133 115.071 136.933 114.908C137.655 115.199 138.182 115.659 138.8 116.041C137.636 116.159 136.227 116.219 135.334 116.994C135.359 117.421 135.495 117.828 135.592 118.239C135.393 118.295 134.993 118.408 134.795 118.464Z" fill="#BCADE0"/>
<path d="M136.498 124.804C136.56 124.29 136.523 123.771 136.776 123.254C137.485 122.669 138.483 122.336 139.37 121.933C139.834 122.554 140.35 123.152 140.958 123.698C139.528 124.261 138.01 124.611 136.498 124.804Z" fill="#AD81E7"/>
<path d="M138.758 121.089C139.82 120.314 140.848 119.511 141.758 118.648C142.754 119.099 143.874 119.485 144.372 120.3L143.935 120.324C143.676 120.037 143.438 119.745 143.195 119.451C142.584 119.791 141.97 120.135 141.366 120.483C140.652 120.899 139.939 121.32 139.224 121.736C139.106 121.576 138.872 121.25 138.758 121.089Z" fill="#B7B7B7"/>
<path d="M140.958 123.699C140.35 123.152 139.834 122.554 139.37 121.933L139.224 121.736C139.939 121.32 140.652 120.899 141.366 120.483C141.443 120.72 141.52 120.956 141.597 121.193C141.257 121.566 140.921 121.937 140.585 122.308C140.927 122.689 141.273 123.067 141.614 123.445C141.449 123.51 141.123 123.636 140.958 123.699Z" fill="#999D8B"/>
<path d="M143.779 126.387C142.943 126.216 142.11 126.041 141.267 125.881C142.291 125.442 143.363 125.086 144.458 124.811C144.469 125.203 144.477 125.596 144.484 125.986C144.734 125.94 145.23 125.855 145.476 125.81C144.91 126.003 144.341 126.198 143.779 126.387Z" fill="#DDC0FB"/>
<path d="M141.614 123.445C141.273 123.067 140.927 122.689 140.585 122.308C140.921 121.937 141.257 121.566 141.597 121.193C141.52 120.956 141.443 120.72 141.366 120.483C141.97 120.135 142.584 119.791 143.195 119.451C143.438 119.745 143.676 120.037 143.935 120.324L143.867 120.666C143.774 121.133 143.678 121.602 143.586 122.07C142.948 122.543 142.301 123.009 141.614 123.445Z" fill="#5A6232"/>
<path d="M231.009 92.259C232.065 91.6918 233.141 91.1492 234.268 90.6825C240.584 88.1701 247.054 85.8649 253.138 82.9809C252.778 83.0295 252.055 83.1334 251.695 83.182C254.757 81.814 257.908 80.5806 261.063 79.364C259.937 80.1505 258.749 80.8877 257.549 81.6105C257.902 81.5697 258.604 81.4893 258.957 81.4485C258.27 81.7673 257.597 82.1062 256.928 82.4413C251.94 84.3791 247.145 86.6337 242.124 88.5117C238.446 89.8202 234.842 91.3487 231.009 92.259Z" fill="#798B3C"/>
<path d="M256.918 85.3323C258.426 82.3935 260.603 79.4941 263.459 76.9452C263.521 77.1262 263.652 77.4831 263.714 77.664C262.85 78.8321 262.056 80.0143 261.292 81.2038C260.282 82.7552 258.919 84.2636 256.918 85.3323Z" fill="#758541"/>
</g>
<defs>
<clipPath id="clip0_201_320">
<rect width="91" height="309" fill="white" transform="translate(24.0407 168.437) rotate(-105)"/>
</clipPath>
</defs>
</svg>
